<svg width="1280" height="832" viewBox="0 0 1280 832" fill="none" xmlns="http://www.w3.org/2000/svg">
<g opacity="0.2">
<path opacity="0.0144928" fill-rule="evenodd" clip-rule="evenodd" d="M1922.76 569.603L1720.43 824.719C1714.61 832.052 1704.65 834.652 1695.99 831.093L1394.84 707.296C1389.72 705.192 1385.63 701.152 1383.48 696.054L1201.9 266.778C1200.21 262.769 1199.8 258.333 1200.73 254.082L1288.51 -144.586C1290.21 -152.293 1296.08 -158.399 1303.72 -160.391L1578.47 -232.053C1586.11 -234.044 1594.22 -231.586 1599.46 -225.689L1870.77 79.3209C1873.67 82.5731 1875.48 86.6439 1875.96 90.9703L1927.17 554.247C1927.78 559.748 1926.19 565.267 1922.76 569.603ZM1723.56 827.205C1716.64 835.934 1704.77 839.029 1694.47 834.793L1393.31 710.996C1387.22 708.491 1382.36 703.681 1379.79 697.612L1198.22 268.336C1196.2 263.564 1195.71 258.282 1196.83 253.222L1284.6 -145.446C1286.62 -154.622 1293.62 -161.89 1302.71 -164.261L1577.46 -235.923C1586.55 -238.294 1596.21 -235.368 1602.45 -228.348L1873.76 76.6624C1877.21 80.5341 1879.36 85.3803 1879.93 90.5308L1931.15 553.807C1931.87 560.356 1929.98 566.926 1925.89 572.089L1723.56 827.205Z" fill="url(#paint0_linear_3_6)"/>
<path opacity="0.0289855" fill-rule="evenodd" clip-rule="evenodd" d="M1883.96 587.499L1669.72 829.583C1663.53 836.573 1653.47 838.641 1645.03 834.658L1352.66 696.737C1347.64 694.372 1343.77 690.121 1341.88 684.911L1184.27 250.822C1182.78 246.718 1182.6 242.252 1183.77 238.045L1291.88 -151.948C1293.99 -159.544 1300.17 -165.32 1307.89 -166.908L1584.36 -223.752C1592.08 -225.339 1600.04 -222.47 1604.97 -216.321L1858.18 99.3839C1860.91 102.79 1862.51 106.962 1862.76 111.321L1889.2 572.38C1889.52 577.913 1887.63 583.348 1883.96 587.499ZM1672.71 832.234C1665.35 840.555 1653.37 843.017 1643.32 838.276L1350.95 700.355C1344.98 697.539 1340.37 692.479 1338.12 686.276L1180.51 252.187C1178.73 247.302 1178.52 241.985 1179.91 236.977L1288.03 -153.017C1290.53 -162.059 1297.89 -168.936 1307.08 -170.826L1583.56 -227.67C1592.75 -229.56 1602.22 -226.144 1608.09 -218.824L1861.3 96.8812C1864.55 100.936 1866.46 105.903 1866.76 111.092L1893.19 572.151C1893.57 578.739 1891.33 585.209 1886.95 590.15L1672.71 832.234Z" fill="url(#paint1_linear_3_6)"/>
<path opacity="0.0434783" fill-rule="evenodd" clip-rule="evenodd" d="M1844.53 604.369L1619.17 832.879C1612.63 839.507 1602.51 841.041 1594.31 836.647L1311.36 685.176C1306.47 682.557 1302.81 678.105 1301.19 672.796L1167.55 235.216C1166.27 231.027 1166.33 226.544 1167.73 222.393L1295.51 -157.899C1298.02 -165.361 1304.49 -170.794 1312.27 -171.974L1589.67 -214.017C1597.45 -215.197 1605.24 -211.925 1609.85 -205.541L1844.58 119.808C1847.14 123.359 1848.53 127.623 1848.55 132.002L1850.57 589.53C1850.6 595.081 1848.42 600.416 1844.53 604.369ZM1622.02 835.687C1614.24 843.578 1602.19 845.404 1592.42 840.174L1309.47 688.703C1303.65 685.584 1299.29 680.285 1297.36 673.965L1163.72 236.384C1162.2 231.398 1162.27 226.061 1163.94 221.119L1291.72 -159.174C1294.7 -168.056 1302.4 -174.524 1311.67 -175.928L1589.07 -217.972C1598.34 -219.376 1607.61 -215.481 1613.09 -207.882L1847.82 117.468C1850.87 121.695 1852.53 126.771 1852.55 131.984L1854.57 589.512C1854.6 596.121 1852.01 602.472 1847.37 607.177L1622.02 835.687Z" fill="url(#paint2_linear_3_6)"/>
<path opacity="0.057971" fill-rule="evenodd" clip-rule="evenodd" d="M1804.52 620.188L1568.88 834.631C1562.02 840.879 1551.86 841.878 1543.91 837.087L1271 672.671C1266.24 669.802 1262.81 665.162 1261.47 659.768L1151.73 220.004C1150.67 215.742 1150.97 211.254 1152.59 207.171L1299.32 -162.441C1302.22 -169.747 1308.96 -174.821 1316.78 -175.591L1594.32 -202.894C1602.15 -203.663 1609.75 -199.999 1614.02 -193.398L1829.96 140.536C1832.34 144.225 1833.51 148.568 1833.3 152.956L1811.36 605.673C1811.09 611.226 1808.63 616.446 1804.52 620.188ZM1571.57 837.589C1563.4 845.028 1551.31 846.217 1541.85 840.514L1268.94 676.098C1263.27 672.682 1259.19 667.158 1257.58 660.736L1147.85 220.973C1146.58 215.899 1146.94 210.556 1148.87 205.695L1295.6 -163.917C1299.06 -172.615 1307.08 -178.656 1316.39 -179.572L1593.93 -206.875C1603.25 -207.791 1612.29 -203.429 1617.37 -195.57L1833.32 138.364C1836.16 142.755 1837.55 147.926 1837.3 153.149L1815.36 605.867C1815.04 612.477 1812.11 618.691 1807.21 623.146L1571.57 837.589Z" fill="url(#paint3_linear_3_6)"/>
<path opacity="0.0724638" fill-rule="evenodd" clip-rule="evenodd" d="M1764 634.936L1518.93 834.868C1511.76 840.72 1501.6 841.185 1493.92 836.012L1231.63 659.281C1227.01 656.169 1223.82 651.352 1222.75 645.887L1136.78 205.231C1135.93 200.906 1136.47 196.426 1138.31 192.423L1303.23 -165.576C1306.52 -172.706 1313.51 -177.409 1321.35 -177.768L1598.25 -190.43C1606.1 -190.789 1613.48 -186.744 1617.4 -179.943L1814.31 161.51C1816.51 165.328 1817.46 169.741 1817.01 174.125L1771.61 620.787C1771.05 626.327 1768.31 631.416 1764 634.936ZM1521.46 837.968C1512.92 844.934 1500.82 845.487 1491.68 839.329L1229.39 662.598C1223.89 658.894 1220.09 653.159 1218.82 646.653L1132.85 205.997C1131.84 200.849 1132.49 195.514 1134.68 190.75L1299.6 -167.25C1303.51 -175.738 1311.83 -181.337 1321.17 -181.763L1598.07 -194.426C1607.41 -194.853 1616.2 -190.037 1620.87 -181.941L1817.78 159.512C1820.4 164.056 1821.52 169.31 1820.99 174.529L1775.59 621.192C1774.92 627.786 1771.66 633.845 1766.52 638.035L1521.46 837.968Z" fill="url(#paint4_linear_3_6)"/>
<path opacity="0.0869565" fill-rule="evenodd" clip-rule="evenodd" d="M1723.02 648.595L1469.39 833.624C1461.93 839.064 1451.8 838.997 1444.41 833.457L1193.27 645.066C1188.81 641.72 1185.86 636.736 1185.08 631.215L1122.66 190.939C1122.04 186.562 1122.81 182.101 1124.88 178.192L1307.17 -167.315C1310.83 -174.248 1318.05 -178.567 1325.89 -178.515L1601.39 -176.679C1609.23 -176.627 1616.39 -172.212 1619.95 -165.231L1797.63 182.674C1799.64 186.611 1800.35 191.081 1799.67 195.45L1731.39 634.855C1730.54 640.365 1727.52 645.309 1723.02 648.595ZM1471.75 836.855C1462.87 843.332 1450.8 843.252 1442.01 836.657L1190.87 648.266C1185.56 644.282 1182.05 638.35 1181.12 631.776L1118.7 191.501C1117.96 186.29 1118.88 180.98 1121.34 176.325L1303.63 -169.181C1307.99 -177.435 1316.58 -182.577 1325.91 -182.514L1601.41 -180.679C1610.75 -180.617 1619.27 -175.362 1623.51 -167.05L1801.19 180.854C1803.58 185.541 1804.44 190.864 1803.63 196.064L1735.35 635.469C1734.33 642.029 1730.74 647.914 1725.38 651.827L1471.75 836.855Z" fill="url(#paint5_linear_3_6)"/>
<path opacity="0.101449" fill-rule="evenodd" clip-rule="evenodd" d="M1681.65 661.153L1420.34 830.935C1412.62 835.95 1402.54 835.354 1395.47 829.465L1155.97 630.09C1151.68 626.517 1148.99 621.381 1148.49 615.818L1109.35 177.168C1108.95 172.75 1109.97 168.322 1112.25 164.516L1311.06 -167.669C1315.08 -174.386 1322.51 -178.309 1330.32 -177.847L1603.67 -161.695C1611.48 -161.233 1618.39 -156.463 1621.59 -149.319L1779.9 203.969C1781.72 208.016 1782.2 212.533 1781.29 216.873L1690.76 647.861C1689.61 653.327 1686.33 658.11 1681.65 661.153ZM1422.52 834.289C1413.33 840.259 1401.33 839.55 1392.91 832.539L1153.41 633.165C1148.3 628.911 1145.1 622.796 1144.51 616.173L1105.36 177.523C1104.89 172.265 1106.1 166.992 1108.81 162.462L1307.63 -169.723C1312.42 -177.72 1321.25 -182.39 1330.56 -181.84L1603.9 -165.688C1613.21 -165.139 1621.43 -159.46 1625.24 -150.955L1783.55 202.333C1785.71 207.151 1786.29 212.529 1785.21 217.696L1694.67 648.683C1693.31 655.19 1689.41 660.885 1683.83 664.507L1422.52 834.289Z" fill="url(#paint6_linear_3_6)"/>
<path opacity="0.115942" fill-rule="evenodd" clip-rule="evenodd" d="M1639.95 672.599L1371.86 826.843C1363.91 831.42 1353.9 830.301 1347.15 824.079L1119.77 614.418C1115.65 610.626 1113.22 605.35 1113.02 599.76L1096.81 163.955C1096.64 159.508 1097.89 155.125 1100.38 151.435L1314.83 -166.656C1319.2 -173.137 1326.81 -176.656 1334.57 -175.787L1605.03 -145.538C1612.8 -144.669 1619.44 -139.557 1622.27 -132.27L1761.14 225.338C1762.75 229.486 1763 234.038 1761.86 238.338L1649.77 659.794C1648.34 665.2 1644.8 669.809 1639.95 672.599ZM1373.86 830.31C1364.39 835.759 1352.48 834.426 1344.44 827.02L1117.05 617.359C1112.16 612.845 1109.27 606.564 1109.02 599.909L1092.81 164.103C1092.61 158.81 1094.1 153.591 1097.06 149.199L1311.51 -168.892C1316.71 -176.608 1325.77 -180.796 1335.02 -179.762L1605.47 -149.513C1614.72 -148.479 1622.63 -142.393 1626 -133.718L1764.87 223.89C1766.79 228.828 1767.09 234.247 1765.73 239.366L1653.64 660.822C1651.93 667.258 1647.72 672.745 1641.95 676.066L1373.86 830.31Z" fill="url(#paint7_linear_3_6)"/>
<path opacity="0.130435" fill-rule="evenodd" clip-rule="evenodd" d="M1597.98 682.925L1324.02 821.392C1315.85 825.52 1305.95 823.884 1299.55 817.349L1084.68 598.116C1080.76 594.115 1078.6 588.712 1078.68 583.11L1085 151.336C1085.07 146.873 1086.56 142.546 1089.25 138.984L1318.4 -164.296C1323.1 -170.524 1330.87 -173.628 1338.58 -172.356L1605.41 -128.269C1613.11 -126.996 1619.47 -121.557 1621.93 -114.147L1741.35 246.725C1742.75 250.963 1742.76 255.538 1741.39 259.785L1608.49 670.646C1606.77 675.977 1602.98 680.398 1597.98 682.925ZM1325.82 824.962C1316.1 829.876 1304.32 827.929 1296.69 820.149L1081.82 600.916C1077.16 596.153 1074.58 589.721 1074.68 583.051L1081 151.278C1081.08 145.964 1082.85 140.813 1086.06 136.573L1315.21 -166.708C1320.81 -174.122 1330.06 -177.817 1339.23 -176.302L1606.07 -132.215C1615.23 -130.7 1622.81 -124.225 1625.72 -115.404L1745.14 245.468C1746.81 250.513 1746.83 255.96 1745.2 261.016L1612.3 671.877C1610.25 678.223 1605.74 683.486 1599.79 686.495L1325.82 824.962Z" fill="url(#paint8_linear_3_6)"/>
<path opacity="0.144928" fill-rule="evenodd" clip-rule="evenodd" d="M1555.81 692.129L1276.88 814.633C1268.53 818.301 1258.76 816.157 1252.71 809.327L1050.75 581.252C1047.02 577.051 1045.14 571.535 1045.51 565.935L1073.9 139.347C1074.2 134.878 1075.92 130.621 1078.81 127.197L1321.7 -160.615C1326.73 -166.571 1334.64 -169.253 1342.25 -167.582L1604.78 -109.951C1612.39 -108.28 1618.45 -102.53 1620.52 -95.0156L1720.52 268.073C1721.71 272.391 1721.49 276.977 1719.89 281.16L1566.98 680.413C1564.97 685.654 1560.95 689.873 1555.81 692.129ZM1278.49 818.295C1268.55 822.662 1256.92 820.11 1249.72 811.979L1047.75 583.904C1043.32 578.902 1041.08 572.336 1041.52 565.67L1069.91 139.081C1070.27 133.761 1072.31 128.693 1075.75 124.618L1318.65 -163.194C1324.63 -170.285 1334.05 -173.479 1343.11 -171.489L1605.63 -113.858C1614.7 -111.868 1621.91 -105.023 1624.38 -96.0777L1724.38 267.011C1725.79 272.152 1725.53 277.611 1723.62 282.59L1570.72 681.843C1568.33 688.082 1563.54 693.105 1557.42 695.792L1278.49 818.295Z" fill="url(#paint9_linear_3_6)"/>
<path opacity="0.15942" fill-rule="evenodd" clip-rule="evenodd" d="M1513.5 700.212L1230.51 806.615C1222 809.816 1212.4 807.173 1206.72 800.069L1017.98 563.893C1014.47 559.502 1012.87 553.887 1013.53 548.306L1063.46 128.017C1063.99 123.554 1065.94 119.379 1069.02 116.105L1324.67 -155.639C1330.01 -161.307 1338.04 -163.562 1345.54 -161.498L1603.06 -90.6524C1610.57 -88.5882 1616.31 -82.5438 1618 -74.9459L1698.68 289.326C1699.65 293.714 1699.19 298.299 1697.36 302.405L1525.29 689.093C1523.01 694.228 1518.76 698.233 1513.5 700.212ZM1231.92 810.359C1221.79 814.17 1210.35 811.024 1203.59 802.566L1014.85 566.39C1010.68 561.163 1008.77 554.479 1009.56 547.834L1059.49 127.546C1060.12 122.232 1062.44 117.262 1066.11 113.365L1321.76 -158.38C1328.11 -165.128 1337.67 -167.812 1346.6 -165.354L1604.12 -94.5091C1613.06 -92.0518 1619.9 -84.8561 1621.9 -75.8109L1702.58 288.461C1703.74 293.685 1703.19 299.143 1701.02 304.031L1528.95 690.719C1526.23 696.833 1521.17 701.601 1514.91 703.956L1231.92 810.359Z" fill="url(#paint10_linear_3_6)"/>
<path opacity="0.173913" fill-rule="evenodd" clip-rule="evenodd" d="M1471.1 707.174L1184.98 797.394C1176.33 800.12 1166.91 796.99 1161.62 789.631L986.398 546.108C983.109 541.538 981.794 535.839 982.747 530.29L1053.64 117.377C1054.4 112.932 1056.58 108.85 1059.84 105.737L1327.24 -149.403C1332.86 -154.767 1340.99 -156.588 1348.36 -154.138L1600.23 -70.442C1607.6 -67.9917 1613.02 -61.6703 1614.31 -54.0086L1675.83 310.43C1676.58 314.877 1675.88 319.448 1673.83 323.466L1483.49 696.687C1480.93 701.703 1476.47 705.481 1471.1 707.174ZM1186.18 801.209C1175.89 804.455 1164.67 800.728 1158.37 791.967L983.151 548.444C979.236 543.004 977.67 536.219 978.804 529.613L1049.7 116.7C1050.61 111.408 1053.2 106.549 1057.08 102.843L1324.48 -152.297C1331.17 -158.682 1340.84 -160.851 1349.62 -157.934L1601.49 -74.2379C1610.27 -71.3209 1616.72 -63.7954 1618.26 -54.6744L1679.77 309.764C1680.67 315.058 1679.83 320.5 1677.39 325.283L1487.05 698.504C1484.01 704.475 1478.69 708.974 1472.3 710.989L1186.18 801.209Z" fill="url(#paint11_linear_3_6)"/>
<path opacity="0.188406" fill-rule="evenodd" clip-rule="evenodd" d="M1428.67 713.025L1140.33 787.029C1131.57 789.275 1122.36 785.669 1117.46 778.077L956.017 527.968C952.959 523.23 951.934 517.461 953.175 511.959L1044.4 107.453C1045.4 103.038 1047.79 99.0622 1051.23 96.1191L1329.35 -141.939C1335.24 -146.983 1343.43 -148.368 1350.66 -145.54L1596.23 -49.3894C1603.46 -46.5611 1608.53 -39.9806 1609.44 -32.2754L1651.98 331.331C1652.51 335.826 1651.57 340.372 1649.3 344.289L1441.63 703.202C1438.8 708.083 1434.13 711.623 1428.67 713.025ZM1141.32 790.903C1130.9 793.577 1119.94 789.285 1114.1 780.246L952.657 530.137C949.015 524.497 947.796 517.628 949.273 511.079L1040.5 106.573C1041.68 101.317 1044.54 96.5841 1048.63 93.0803L1326.74 -144.978C1333.76 -150.983 1343.52 -152.631 1352.12 -149.264L1597.69 -53.1141C1606.29 -49.7471 1612.34 -41.9132 1613.41 -32.7403L1655.96 330.866C1656.58 336.218 1655.46 341.629 1652.77 346.292L1445.09 705.205C1441.73 711.016 1436.17 715.231 1429.67 716.9L1141.32 790.903Z" fill="url(#paint12_linear_3_6)"/>
<path opacity="0.202899" fill-rule="evenodd" clip-rule="evenodd" d="M1386.28 717.774L1096.62 775.579C1087.79 777.342 1078.81 773.274 1074.32 765.469L926.849 509.542C924.029 504.647 923.3 498.823 924.826 493.384L1035.7 98.2697C1036.93 93.8963 1039.54 90.0388 1043.14 87.2756L1330.92 -133.286C1337.07 -137.998 1345.31 -138.943 1352.37 -135.746L1591.05 -27.5677C1598.1 -24.3704 1602.82 -17.5496 1603.33 -9.82118L1627.17 351.977C1627.47 356.509 1626.29 361.016 1623.81 364.822L1399.77 708.645C1396.69 713.378 1391.82 716.668 1386.28 717.774ZM1097.4 779.502C1086.89 781.6 1076.21 776.758 1070.85 767.467L923.383 511.539C920.026 505.712 919.158 498.778 920.975 492.303L1031.85 97.189C1033.31 91.9826 1036.42 87.3903 1040.71 84.1008L1328.49 -136.461C1335.81 -142.07 1345.62 -143.195 1354.02 -139.389L1592.7 -31.211C1601.1 -27.4047 1606.72 -19.2847 1607.32 -10.0841L1631.16 351.714C1631.52 357.11 1630.11 362.475 1627.16 367.006L1403.12 710.828C1399.45 716.463 1393.66 720.381 1387.07 721.697L1097.4 779.502Z" fill="url(#paint13_linear_3_6)"/>
<path opacity="0.217391" fill-rule="evenodd" clip-rule="evenodd" d="M1343.99 721.433L1053.91 763.108C1045.02 764.385 1036.31 759.871 1032.22 751.875L898.898 490.899C896.324 485.86 895.892 479.995 897.7 474.633L1027.49 89.8496C1028.95 85.5299 1031.77 81.8016 1035.53 79.228L1331.92 -123.487C1338.3 -127.852 1346.57 -128.357 1353.43 -124.8L1584.63 -5.05081C1591.5 -1.4945 1595.86 5.54738 1595.97 13.2789L1601.4 372.316C1601.47 376.874 1600.05 381.331 1597.37 385.014L1357.97 713.027C1354.63 717.597 1349.59 720.628 1343.99 721.433ZM1054.48 767.068C1043.9 768.588 1033.52 763.214 1028.66 753.695L895.336 492.719C892.271 486.72 891.757 479.738 893.91 473.355L1023.7 88.5711C1025.44 83.4286 1028.8 78.9902 1033.28 75.9264L1329.66 -126.788C1337.26 -131.985 1347.1 -132.586 1355.27 -128.352L1586.47 -8.60266C1594.65 -4.36897 1599.83 4.0142 1599.97 13.2185L1605.4 372.256C1605.48 377.682 1603.8 382.988 1600.6 387.372L1361.2 715.385C1357.23 720.826 1351.23 724.434 1344.56 725.392L1054.48 767.068Z" fill="url(#paint14_linear_3_6)"/>
<path opacity="0.231884" fill-rule="evenodd" clip-rule="evenodd" d="M1301.85 724.019L1012.23 749.682C1003.32 750.472 994.887 745.527 991.223 737.363L872.165 472.109C869.844 466.938 869.712 461.048 871.799 455.778L1019.74 82.2117C1021.42 77.9575 1024.45 74.37 1028.36 71.9948L1332.27 -112.584C1338.87 -116.591 1347.14 -116.655 1353.8 -112.751L1576.97 18.0863C1583.63 21.9905 1587.61 29.2336 1587.33 36.9483L1574.7 392.299C1574.54 396.872 1572.89 401.266 1570 404.814L1316.28 716.362C1312.7 720.757 1307.49 723.518 1301.85 724.019ZM1012.59 753.666C1001.98 754.606 991.936 748.719 987.573 739.001L868.516 473.747C865.752 467.591 865.595 460.579 868.08 454.305L1016.02 80.7389C1018.02 75.6744 1021.63 71.4035 1026.28 68.5759L1330.2 -116.003C1338.05 -120.773 1347.89 -120.85 1355.82 -116.202L1578.99 14.6356C1586.92 19.2834 1591.66 27.9062 1591.33 37.0903L1578.7 392.441C1578.51 397.885 1576.54 403.116 1573.1 407.34L1319.38 718.887C1315.12 724.12 1308.92 727.407 1302.2 728.003L1012.59 753.666Z" fill="url(#paint15_linear_3_6)"/>
<path opacity="0.246377" fill-rule="evenodd" clip-rule="evenodd" d="M1259.91 725.55L971.64 735.367C962.728 735.67 954.595 730.312 951.358 722.002L846.648 453.243C844.587 447.952 844.756 442.052 847.117 436.888L1012.39 75.3737C1014.3 71.1967 1017.52 67.7609 1021.57 65.5926L1331.94 -100.624C1338.73 -104.263 1346.97 -103.888 1353.41 -99.6476L1568.02 41.7679C1574.46 46.008 1578.05 53.4321 1577.39 61.1098L1547.1 411.878C1546.71 416.453 1544.82 420.773 1541.74 424.176L1274.75 718.667C1270.94 722.873 1265.59 725.356 1259.91 725.55ZM971.776 739.364C961.166 739.726 951.485 733.347 947.631 723.455L842.921 454.695C840.467 448.396 840.668 441.372 843.479 435.225L1008.75 73.7107C1011.02 68.738 1014.86 64.6477 1019.68 62.0664L1330.05 -104.151C1338.14 -108.482 1347.95 -108.035 1355.61 -102.988L1570.22 38.4278C1577.88 43.4755 1582.16 52.3137 1581.37 61.4539L1551.09 412.222C1550.62 417.669 1548.38 422.812 1544.7 426.863L1277.72 721.353C1273.18 726.361 1266.8 729.317 1260.05 729.547L971.776 739.364Z" fill="url(#paint16_linear_3_6)"/>
<path opacity="0.26087" fill-rule="evenodd" clip-rule="evenodd" d="M1218.23 726.048L932.164 720.232C923.279 720.052 915.47 714.298 912.664 705.866L822.343 434.367C820.547 428.969 821.018 423.075 823.647 418.031L1005.4 69.3499C1007.53 65.2617 1010.95 61.9883 1015.12 60.0349L1330.86 -87.658C1337.83 -90.9176 1346.02 -90.1062 1352.21 -85.543L1557.78 65.9172C1563.98 70.4803 1567.18 78.0647 1566.13 85.6858L1518.63 431.006C1518 435.573 1515.89 439.806 1512.61 443.053L1233.45 719.961C1229.41 723.967 1223.92 726.163 1218.23 726.048ZM932.083 724.231C921.505 724.016 912.209 717.167 908.869 707.128L818.547 435.629C816.41 429.204 816.97 422.187 820.1 416.182L1001.85 67.501C1004.39 62.6341 1008.46 58.7372 1013.43 56.4117L1329.16 -91.2813C1337.46 -95.1617 1347.21 -94.1956 1354.58 -88.7634L1560.16 62.6969C1567.53 68.1292 1571.34 77.1582 1570.09 86.2309L1522.59 431.551C1521.84 436.988 1519.33 442.028 1515.43 445.893L1236.27 722.801C1231.46 727.57 1224.92 730.184 1218.15 730.047L932.083 724.231Z" fill="url(#paint17_linear_3_6)"/>
<path opacity="0.275362" fill-rule="evenodd" clip-rule="evenodd" d="M1176.87 725.538L893.838 704.349C885.007 703.687 877.54 697.558 875.171 689.026L799.237 415.55C797.712 410.059 798.484 404.185 801.376 399.275L998.723 64.1524C1001.07 60.1643 1004.67 57.0639 1008.96 55.3328L1328.99 -73.7359C1336.11 -76.6082 1344.23 -75.3642 1350.17 -70.4919L1546.24 90.4576C1552.17 95.3299 1554.98 103.053 1553.55 110.598L1489.31 449.639C1488.45 454.186 1486.11 458.321 1482.66 461.402L1192.41 720.268C1188.16 724.061 1182.55 725.963 1176.87 725.538ZM893.539 708.337C883.027 707.55 874.137 700.253 871.317 690.096L795.383 416.62C793.568 410.084 794.487 403.091 797.929 397.245L995.277 62.1226C998.072 57.375 1002.36 53.6839 1007.47 51.6231L1327.49 -77.4456C1335.97 -80.8649 1345.64 -79.384 1352.71 -73.5836L1548.78 87.3658C1555.84 93.1662 1559.18 102.361 1557.48 111.343L1493.24 450.383C1492.22 455.797 1489.43 460.719 1485.32 464.387L1195.08 723.254C1190.01 727.769 1183.33 730.033 1176.57 729.526L893.539 708.337Z" fill="url(#paint18_linear_3_6)"/>
<path opacity="0.289855" fill-rule="evenodd" clip-rule="evenodd" d="M1135.87 724.046L856.692 687.788C847.943 686.651 840.836 680.166 838.906 671.557L777.319 396.858C776.07 391.288 777.143 385.45 780.289 380.687L992.319 59.7908C994.881 55.9142 998.655 52.9966 1003.05 51.4948L1326.29 -58.9116C1333.54 -61.3892 1341.57 -59.7178 1347.23 -54.5509L1533.38 115.312C1539.04 120.479 1541.43 128.32 1539.63 135.77L1459.19 467.734C1458.09 472.25 1455.53 476.275 1451.9 479.18L1151.7 719.612C1147.24 723.181 1141.53 724.781 1135.87 724.046ZM856.177 691.754C845.761 690.401 837.301 682.681 835.003 672.432L773.416 397.733C771.929 391.102 773.206 384.152 776.952 378.482L988.982 57.5857C992.031 52.9707 996.525 49.4974 1001.76 47.7095L1325 -62.6968C1333.63 -65.6464 1343.19 -63.6566 1349.93 -57.5056L1536.07 112.357C1542.81 118.508 1545.67 127.843 1543.52 136.712L1463.07 468.676C1461.77 474.052 1458.72 478.844 1454.4 482.302L1154.2 722.734C1148.89 726.982 1142.09 728.888 1135.35 728.013L856.177 691.754Z" fill="url(#paint19_linear_3_6)"/>
<path opacity="0.304348" fill-rule="evenodd" clip-rule="evenodd" d="M1095.27 721.603L820.752 670.622C812.109 669.017 805.38 662.198 803.89 653.534L756.571 378.358C755.602 372.722 756.973 366.934 760.368 362.332L986.139 56.2722C988.908 52.5182 992.848 49.7931 997.338 48.5268L1322.72 -43.2402C1330.08 -45.317 1337.99 -43.2247 1343.37 -37.7787L1519.19 140.403C1524.57 145.849 1526.55 153.787 1524.38 161.122L1428.28 485.252C1426.96 489.725 1424.18 493.629 1420.39 496.348L1111.35 718.02C1106.7 721.354 1100.9 722.647 1095.27 721.603ZM820.022 674.555C809.732 672.644 801.722 664.526 799.948 654.212L752.629 379.035C751.475 372.326 753.108 365.436 757.149 359.958L982.92 53.8977C986.217 49.4286 990.907 46.1845 996.252 44.677L1321.63 -47.0901C1330.4 -49.5624 1339.82 -47.0715 1346.22 -40.5882L1522.04 137.594C1528.44 144.077 1530.8 153.527 1528.21 162.259L1432.12 486.389C1430.54 491.714 1427.23 496.361 1422.72 499.598L1113.68 721.271C1108.15 725.239 1101.24 726.779 1094.54 725.536L820.022 674.555Z" fill="url(#paint20_linear_3_6)"/>
<path opacity="0.318841" fill-rule="evenodd" clip-rule="evenodd" d="M1055.14 718.241L786.038 652.925C777.527 650.859 771.192 643.728 770.142 635.033L736.974 360.112C736.287 354.424 737.955 348.703 741.589 344.274L980.136 53.6009C983.108 49.9803 987.204 47.4569 991.774 46.432L1318.24 -26.779C1325.7 -28.45 1333.47 -25.9443 1338.54 -20.2354L1503.69 165.655C1508.76 171.364 1510.33 179.377 1507.79 186.579L1396.64 502.155C1395.09 506.573 1392.1 510.344 1388.15 512.868L1071.41 715.522C1066.58 718.61 1060.71 719.592 1055.14 718.241ZM785.095 656.812C774.962 654.353 767.42 645.864 766.171 635.512L733.002 360.591C732.185 353.82 734.17 347.009 738.497 341.737L977.044 51.0633C980.582 46.7531 985.458 43.7491 990.899 42.5289L1317.37 -30.6821C1326.24 -32.6714 1335.49 -29.6884 1341.53 -22.8921L1506.68 162.999C1512.71 169.795 1514.59 179.333 1511.57 187.908L1400.42 503.484C1398.56 508.743 1395.01 513.232 1390.31 516.237L1073.57 718.892C1067.82 722.568 1060.82 723.737 1054.2 722.128L785.095 656.812Z" fill="url(#paint21_linear_3_6)"/>
<path opacity="0.333333" fill-rule="evenodd" clip-rule="evenodd" d="M1015.51 713.992L752.564 634.771C744.21 632.254 738.283 624.833 737.673 616.13L718.5 342.183C718.099 336.458 720.059 330.818 723.925 326.575L974.264 51.779C977.431 48.3023 981.674 45.9894 986.312 45.211L1312.83 -9.58639C1320.35 -10.8478 1327.96 -7.93767 1332.71 -1.98269L1486.86 190.992C1491.62 196.947 1492.78 205.012 1489.89 212.064L1364.31 518.406C1362.52 522.758 1359.33 526.385 1355.24 528.706L1031.93 712.15C1026.93 714.982 1021 715.648 1015.51 713.992ZM751.41 638.601C741.465 635.604 734.408 626.77 733.683 616.409L714.51 342.463C714.033 335.646 716.366 328.932 720.968 323.881L971.307 49.0852C975.078 44.9463 980.129 42.1928 985.65 41.2662L1312.17 -13.5312C1321.11 -15.0329 1330.17 -11.5685 1335.84 -4.4792L1489.99 188.496C1495.65 195.585 1497.03 205.186 1493.59 213.581L1368.01 519.923C1365.88 525.104 1362.08 529.422 1357.21 532.185L1033.9 715.629C1027.96 719.001 1020.89 719.793 1014.35 717.822L751.41 638.601Z" fill="url(#paint22_linear_3_6)"/>
<path opacity="0.347826" fill-rule="evenodd" clip-rule="evenodd" d="M976.414 708.894L720.344 616.233C712.171 613.275 706.665 605.589 706.494 596.9L701.124 324.632C701.011 318.883 703.26 313.339 707.347 309.294L968.478 50.806C971.835 47.4835 976.213 45.3894 980.906 44.862L1306.45 8.27818C1314 7.42869 1321.43 10.7333 1325.86 16.9168L1468.73 216.339C1473.16 222.522 1473.9 230.618 1470.66 237.502L1331.31 533.973C1329.3 538.247 1325.91 541.719 1321.69 543.828L992.939 707.937C987.795 710.505 981.822 710.851 976.414 708.894ZM718.983 619.994C709.254 616.473 702.698 607.323 702.494 596.979L697.125 324.711C696.99 317.867 699.667 311.267 704.533 306.451L965.664 47.9632C969.66 44.0079 974.872 41.5149 980.46 40.887L1306 4.3032C1315 3.29191 1323.84 7.22592 1329.11 14.5872L1471.98 214.009C1477.26 221.371 1478.14 231.008 1474.28 239.204L1334.93 535.674C1332.54 540.762 1328.5 544.896 1323.47 547.407L994.726 711.515C988.601 714.573 981.491 714.985 975.053 712.656L718.983 619.994Z" fill="url(#paint23_linear_3_6)"/>
<path opacity="0.362319" fill-rule="evenodd" clip-rule="evenodd" d="M937.906 702.985L689.384 597.385C681.417 593.999 676.344 586.072 676.607 577.419L684.816 307.517C684.991 301.759 687.524 296.325 691.822 292.489L962.733 50.679C966.272 47.5207 970.775 45.6532 975.51 45.3806L1299.07 26.7541C1306.65 26.3177 1313.87 30.0055 1317.96 36.3995L1449.3 241.621C1453.39 248.015 1453.72 256.12 1450.15 262.819L1297.7 548.823C1295.47 553.009 1291.89 556.316 1287.54 558.206L954.487 702.918C949.203 705.214 943.208 705.238 937.906 702.985ZM687.82 601.066C678.335 597.036 672.295 587.598 672.609 577.297L680.817 307.395C681.026 300.54 684.042 294.072 689.158 289.504L960.069 47.6949C964.282 43.9349 969.643 41.7117 975.28 41.3872L1298.84 22.7607C1307.86 22.2413 1316.46 26.6315 1321.33 34.2433L1452.67 239.465C1457.54 247.077 1457.93 256.725 1453.68 264.701L1301.23 550.705C1298.58 555.687 1294.31 559.624 1289.13 561.875L956.081 706.587C949.791 709.32 942.654 709.349 936.342 706.667L687.82 601.066Z" fill="url(#paint24_linear_3_6)"/>
<path opacity="0.376812" fill-rule="evenodd" clip-rule="evenodd" d="M900.016 696.305L659.688 578.301C651.949 574.501 647.319 566.357 648.012 557.762L669.539 290.894C670.003 285.141 672.815 279.832 677.314 276.216L956.984 51.3928C960.696 48.4083 965.313 46.7747 970.077 46.7601L1290.68 45.78C1298.25 45.7568 1305.25 49.8156 1309 56.4013L1428.59 266.768C1432.34 273.354 1432.24 281.445 1428.35 287.943L1263.52 562.93C1261.07 567.016 1257.31 570.148 1252.84 571.811L916.606 697.132C911.197 699.148 905.197 698.849 900.016 696.305ZM657.925 581.892C648.712 577.368 643.2 567.672 644.025 557.441L665.552 290.573C666.105 283.723 669.452 277.403 674.808 273.098L954.477 48.2753C958.897 44.7223 964.394 42.7775 970.065 42.7601L1290.67 41.78C1299.68 41.7524 1308.02 46.5843 1312.48 54.4244L1432.07 264.791C1436.53 272.631 1436.42 282.264 1431.78 289.999L1266.95 564.987C1264.04 569.851 1259.55 573.579 1254.24 575.559L918.002 700.88C911.564 703.28 904.421 702.924 898.253 699.895L657.925 581.892Z" fill="url(#paint25_linear_3_6)"/>
<path opacity="0.391304" fill-rule="evenodd" clip-rule="evenodd" d="M862.779 688.894L631.255 559.055C623.766 554.855 619.588 546.518 620.705 538.005L655.259 274.818C656.012 269.084 659.096 263.914 663.784 260.528L951.186 52.9399C955.064 50.1385 959.783 48.7454 964.562 48.9914L1281.25 65.2941C1288.8 65.6827 1295.56 70.0991 1298.95 76.8574L1406.62 291.707C1410.01 298.465 1409.5 306.522 1405.3 312.803L1228.81 576.268C1226.15 580.243 1222.21 583.189 1217.64 584.62L879.329 690.617C873.81 692.346 867.823 691.723 862.779 688.894ZM629.298 562.544C620.383 557.544 615.409 547.619 616.74 537.484L651.293 274.297C652.189 267.471 655.861 261.316 661.442 257.285L948.844 49.6973C953.461 46.3622 959.079 44.7039 964.767 44.9967L1281.46 61.2994C1290.45 61.762 1298.49 67.0196 1302.53 75.0652L1410.2 289.915C1414.23 297.96 1413.63 307.552 1408.62 315.029L1232.14 578.494C1228.97 583.226 1224.27 586.734 1218.84 588.437L880.525 694.434C873.955 696.493 866.827 695.751 860.822 692.383L629.298 562.544Z" fill="url(#paint26_linear_3_6)"/>
<path opacity="0.405797" fill-rule="evenodd" clip-rule="evenodd" d="M826.226 680.796L604.079 539.718C596.861 535.134 593.143 526.631 594.678 518.22L641.936 259.339C642.976 253.638 646.326 248.621 651.192 245.475L945.297 55.3101C949.333 52.7006 954.141 51.5543 958.92 52.0627L1270.78 85.234C1278.29 86.0318 1284.78 90.7914 1287.8 97.7027L1383.42 316.369C1386.44 323.281 1385.53 331.282 1381.02 337.331L1193.62 588.813C1190.75 592.666 1186.65 595.418 1181.99 596.61L842.689 683.414C837.075 684.85 831.118 683.903 826.226 680.796ZM601.935 543.095C593.342 537.637 588.915 527.515 590.743 517.501L638.001 258.62C639.239 251.834 643.227 245.862 649.02 242.116L943.125 51.9511C947.93 48.8446 953.654 47.48 959.344 48.0851L1271.21 81.2564C1280.14 82.2062 1287.87 87.8724 1291.47 96.1002L1387.09 314.767C1390.68 322.995 1389.59 332.52 1384.23 339.721L1196.83 591.203C1193.41 595.79 1188.52 599.067 1182.98 600.485L843.68 687.289C836.997 688.999 829.905 687.871 824.082 684.173L601.935 543.095Z" fill="url(#paint27_linear_3_6)"/>
<path opacity="0.42029" fill-rule="evenodd" clip-rule="evenodd" d="M790.388 672.056L578.152 520.362C571.225 515.411 567.973 506.768 569.918 498.479L629.527 244.506C630.854 238.854 634.461 234.003 639.493 231.106L939.275 58.4916C943.459 56.0826 948.345 55.1887 953.111 55.9604L1259.26 105.538C1266.69 106.741 1272.91 111.828 1275.56 118.873L1359.01 340.689C1361.66 347.733 1360.34 355.658 1355.55 361.46L1158 600.545C1154.93 604.267 1150.67 606.815 1145.93 607.762L806.715 675.564C801.022 676.702 795.112 675.432 790.388 672.056ZM575.826 523.616C567.58 517.722 563.708 507.433 566.024 497.565L625.633 243.592C627.212 236.863 631.507 231.088 637.497 227.639L937.279 55.0252C942.26 52.1573 948.076 51.0931 953.75 52.0119L1259.9 101.589C1268.74 103.021 1276.14 109.078 1279.3 117.464L1362.76 339.28C1365.91 347.667 1364.34 357.1 1358.63 364.008L1161.09 603.093C1157.43 607.523 1152.35 610.557 1146.72 611.684L807.499 679.486C800.722 680.841 793.685 679.329 788.062 675.31L575.826 523.616Z" fill="url(#paint28_linear_3_6)"/>
<path opacity="0.434783" fill-rule="evenodd" clip-rule="evenodd" d="M755.29 662.718L553.46 501.057C546.843 495.757 544.062 486.999 546.408 478.853L617.988 230.365C619.599 224.775 623.456 220.104 628.64 217.464L933.078 62.4696C937.4 60.269 942.351 59.6325 947.09 60.6681L1246.67 126.142C1254 127.746 1259.93 133.145 1262.2 140.302L1333.43 364.6C1335.7 371.757 1333.98 379.584 1328.91 385.126L1122 611.446C1118.73 615.026 1114.32 617.363 1109.52 618.059L771.434 667.11C765.677 667.945 759.831 666.355 755.29 662.718ZM550.959 504.179C543.082 497.87 539.771 487.444 542.565 477.746L614.145 229.258C616.062 222.603 620.653 217.042 626.825 213.899L931.263 58.905C936.409 56.2853 942.303 55.5275 947.944 56.7603L1247.52 122.235C1256.26 124.143 1263.31 130.571 1266.01 139.091L1337.24 363.389C1339.95 371.91 1337.9 381.227 1331.87 387.825L1124.95 614.145C1121.06 618.407 1115.81 621.188 1110.09 622.017L772.008 671.068C765.154 672.063 758.195 670.169 752.79 665.84L550.959 504.179Z" fill="url(#paint29_linear_3_6)"/>
<path opacity="0.449275" fill-rule="evenodd" clip-rule="evenodd" d="M720.956 652.829L529.985 481.871C523.697 476.242 521.39 467.396 524.127 459.413L607.272 216.96C609.163 211.446 613.261 206.966 618.585 204.592L926.666 67.2282C931.117 65.2437 936.119 64.8689 940.816 66.168L1233.01 146.986C1240.23 148.984 1245.84 154.677 1247.73 161.927L1306.71 388.04C1308.6 395.29 1306.48 402.998 1301.16 408.268L1085.66 621.503C1082.2 624.931 1077.65 627.047 1072.79 627.489L736.868 658.096C731.063 658.624 725.299 656.717 720.956 652.829ZM527.317 484.852C519.831 478.15 517.084 467.619 520.344 458.115L603.488 215.663C605.739 209.098 610.618 203.765 616.956 200.939L925.037 63.5749C930.336 61.2124 936.291 60.7662 941.882 62.3128L1234.08 143.131C1242.67 145.509 1249.35 152.287 1251.6 160.917L1310.58 387.031C1312.83 395.661 1310.31 404.837 1303.97 411.111L1088.47 624.346C1084.35 628.427 1078.93 630.946 1073.16 631.472L737.231 662.079C730.32 662.709 723.458 660.437 718.288 655.809L527.317 484.852Z" fill="url(#paint30_linear_3_6)"/>
<path opacity="0.463768" fill-rule="evenodd" clip-rule="evenodd" d="M687.405 642.435L507.707 462.872C501.764 456.934 499.933 448.025 503.051 440.224L597.33 204.33C599.497 198.906 603.826 194.63 609.276 192.529L920 72.7488C924.569 70.9875 929.609 70.8782 934.25 72.4397L1218.28 168.008C1225.37 170.392 1230.65 176.361 1232.16 183.683L1278.88 410.95C1280.39 418.272 1277.89 425.841 1272.32 430.826L1049.03 630.703C1045.38 633.968 1040.71 635.857 1035.81 636.041L703.039 648.566C697.202 648.785 691.537 646.564 687.405 642.435ZM504.88 465.702C497.805 458.632 495.624 448.027 499.336 438.739L593.615 202.846C596.196 196.389 601.349 191.298 607.838 188.797L918.561 69.0165C924 66.9197 930.001 66.7896 935.526 68.6486L1219.56 164.217C1227.99 167.055 1234.28 174.161 1236.08 182.877L1282.8 410.145C1284.59 418.861 1281.62 427.872 1274.99 433.807L1051.7 633.683C1047.36 637.571 1041.79 639.819 1035.97 640.038L703.189 652.563C696.241 652.824 689.497 650.18 684.578 645.265L504.88 465.702Z" fill="url(#paint31_linear_3_6)"/>
<path opacity="0.478261" fill-rule="evenodd" clip-rule="evenodd" d="M654.657 631.586L486.602 444.125C481.02 437.898 479.664 428.953 483.15 421.352L588.11 192.513C590.55 187.193 595.1 183.132 600.662 181.311L913.042 79.0111C917.718 77.4797 922.784 77.639 927.354 79.4611L1202.5 189.147C1209.42 191.909 1214.37 198.136 1215.48 205.508L1250 433.273C1251.12 440.645 1248.24 448.057 1242.45 452.746L1012.16 639.036C1008.34 642.131 1003.55 643.784 998.629 643.707L669.965 638.565C664.113 638.474 658.564 635.944 654.657 631.586ZM483.623 446.795C476.978 439.382 475.364 428.733 479.514 419.685L584.474 190.845C587.379 184.512 592.796 179.678 599.418 177.509L911.797 75.2097C917.364 73.3867 923.394 73.5763 928.836 75.7455L1203.98 185.432C1212.22 188.719 1218.11 196.132 1219.44 204.908L1253.96 432.673C1255.29 441.45 1251.86 450.273 1244.96 455.856L1014.68 642.146C1010.13 645.83 1004.42 647.798 998.566 647.706L669.902 642.565C662.935 642.456 656.33 639.444 651.679 634.256L483.623 446.795Z" fill="url(#paint32_linear_3_6)"/>
<path opacity="0.492754" fill-rule="evenodd" clip-rule="evenodd" d="M622.725 620.328L466.64 425.692C461.433 419.199 460.552 410.244 464.394 402.861L579.56 181.541C582.268 176.338 587.028 172.505 592.688 170.968L905.757 85.993C910.529 84.6977 915.605 85.128 920.091 87.2081L1185.65 210.344C1192.4 213.473 1196.99 219.937 1197.72 227.339L1220.11 454.953C1220.84 462.356 1217.59 469.591 1211.59 473.974L975.11 646.497C971.116 649.411 966.22 650.823 961.287 650.482L637.662 628.14C631.81 627.736 626.395 624.904 622.725 620.328ZM463.52 428.195C457.321 420.465 456.272 409.804 460.846 401.014L576.012 179.695C579.235 173.501 584.902 168.937 591.64 167.108L904.709 82.1327C910.39 80.5906 916.433 81.1029 921.774 83.5793L1187.33 206.715C1195.37 210.44 1200.83 218.136 1201.7 226.948L1224.09 454.562C1224.96 463.374 1221.1 471.987 1213.94 477.206L977.468 649.728C972.712 653.198 966.884 654.878 961.012 654.472L637.386 632.131C630.42 631.65 623.973 628.278 619.605 622.83L463.52 428.195Z" fill="url(#paint33_linear_3_6)"/>
<path opacity="0.507246" fill-rule="evenodd" clip-rule="evenodd" d="M591.623 608.711L447.793 407.635C442.974 400.898 442.565 391.958 446.749 384.81L571.627 171.446C574.596 166.374 579.555 162.777 585.299 161.531L898.109 93.6706C902.966 92.6169 908.039 93.32 912.427 95.6549L1167.76 231.539C1174.31 235.024 1178.54 241.706 1178.87 249.118L1189.25 475.941C1189.59 483.352 1185.99 490.392 1179.79 494.461L937.918 653.082C933.762 655.807 928.774 656.97 923.841 656.364L606.143 617.337C600.309 616.62 595.043 613.491 591.623 608.711ZM444.539 409.962C438.802 401.942 438.316 391.299 443.297 382.789L568.175 169.426C571.71 163.387 577.613 159.106 584.451 157.622L897.261 89.7615C903.043 88.5071 909.083 89.3442 914.306 92.1238L1169.64 228.007C1177.44 232.157 1182.47 240.112 1182.87 248.935L1193.24 475.758C1193.65 484.581 1189.36 492.962 1181.98 497.806L940.111 656.426C935.164 659.671 929.226 661.056 923.353 660.334L605.655 621.307C598.71 620.454 592.441 616.729 588.37 611.038L444.539 409.962Z" fill="url(#paint34_linear_3_6)"/>
<path opacity="0.521739" fill-rule="evenodd" clip-rule="evenodd" d="M561.359 596.783L430.023 390.012C425.603 383.055 425.663 374.155 430.174 367.258L564.254 162.255C567.478 157.326 572.624 153.977 578.437 153.025L890.065 102.019C894.995 101.212 900.052 102.189 904.326 104.774L1148.84 252.674C1155.17 256.504 1159.02 263.383 1158.97 270.783L1157.47 496.188C1157.42 503.588 1153.48 510.415 1147.1 514.16L900.635 658.79C896.327 661.318 891.258 662.228 886.339 661.355L575.418 606.201C569.618 605.172 564.517 601.755 561.359 596.783ZM426.646 392.156C421.385 383.874 421.456 373.28 426.827 365.068L560.907 160.066C564.745 154.197 570.871 150.211 577.791 149.078L889.419 98.0711C895.288 97.1104 901.308 98.2735 906.396 101.352L1150.91 249.252C1158.45 253.811 1163.03 262.001 1162.97 270.81L1161.47 496.215C1161.41 505.024 1156.72 513.152 1149.12 517.61L902.66 662.239C897.53 665.249 891.496 666.332 885.64 665.293L574.719 610.139C567.815 608.914 561.742 604.846 557.983 598.927L426.646 392.156Z" fill="url(#paint35_linear_3_6)"/>
<path opacity="0.536232" fill-rule="evenodd" clip-rule="evenodd" d="M531.94 584.592L413.294 372.878C409.284 365.724 409.806 356.891 414.63 350.259L557.385 153.991C560.857 149.217 566.178 146.125 572.044 145.472L881.595 111.009C886.586 110.454 891.611 111.705 895.759 114.536L1128.9 273.695C1135 277.856 1138.46 284.91 1138.02 292.277L1124.83 515.65C1124.39 523.017 1120.12 529.615 1113.58 533.029L863.313 663.623C858.861 665.946 853.723 666.597 848.832 665.457L545.494 594.778C539.746 593.439 534.826 589.742 531.94 584.592ZM409.804 374.833C405.031 366.317 405.653 355.801 411.395 347.906L554.15 151.638C558.283 145.955 564.618 142.274 571.602 141.497L881.152 107.034C887.094 106.372 893.076 107.862 898.014 111.233L1131.16 270.391C1138.41 275.345 1142.54 283.743 1142.02 292.513L1128.82 515.886C1128.3 524.656 1123.22 532.511 1115.43 536.575L865.163 667.169C859.863 669.935 853.747 670.709 847.925 669.353L544.587 598.674C537.743 597.079 531.886 592.678 528.451 586.548L409.804 374.833Z" fill="url(#paint36_linear_3_6)"/>
<path opacity="0.550725" fill-rule="evenodd" clip-rule="evenodd" d="M503.371 572.188L397.565 356.287C393.975 348.961 394.952 340.218 400.072 333.866L550.962 146.675C554.674 142.069 560.157 139.243 566.062 138.891L872.668 120.615C877.708 120.314 882.687 121.84 886.694 124.911L1107.97 294.546C1113.81 299.023 1116.88 306.232 1116.06 313.546L1091.37 534.285C1090.56 541.599 1085.97 547.952 1079.28 551.028L825.999 667.586C821.412 669.696 816.219 670.084 811.37 668.677L516.378 583.116C510.697 581.468 505.974 577.5 503.371 572.188ZM393.973 358.047C389.699 349.325 390.863 338.918 396.958 331.356L547.848 144.164C552.267 138.682 558.794 135.317 565.824 134.898L872.43 116.622C878.43 116.264 884.358 118.08 889.128 121.737L1110.4 291.371C1117.36 296.702 1121.01 305.283 1120.04 313.991L1095.35 534.73C1094.37 543.437 1088.91 550.999 1080.95 554.662L827.671 671.219C822.211 673.732 816.028 674.193 810.256 672.519L515.264 586.957C508.5 584.996 502.878 580.272 499.779 573.948L393.973 358.047Z" fill="url(#paint37_linear_3_6)"/>
<path opacity="0.565217" fill-rule="evenodd" clip-rule="evenodd" d="M475.651 559.619L382.794 340.288C379.63 332.815 381.055 324.187 386.455 318.128L544.927 140.323C548.872 135.897 554.503 133.345 560.431 133.296L863.256 130.805C868.333 130.763 873.252 132.562 877.104 135.867L1086.06 315.174C1091.63 319.953 1094.3 327.294 1093.11 334.534L1057.17 552.057C1055.97 559.297 1051.08 565.388 1044.27 568.122L788.741 670.686C784.03 672.577 778.794 672.697 774.001 671.025L488.071 571.259C482.473 569.306 477.962 565.078 475.651 559.619ZM379.11 341.848C375.343 332.951 377.04 322.68 383.469 315.467L541.941 137.661C546.637 132.393 553.341 129.354 560.399 129.296L863.223 126.805C869.267 126.755 875.123 128.896 879.709 132.832L1088.67 312.139C1095.3 317.828 1098.48 326.566 1097.05 335.186L1061.11 552.709C1059.69 561.329 1053.87 568.58 1045.76 571.834L790.231 674.398C784.623 676.649 778.389 676.793 772.683 674.802L486.753 575.036C480.089 572.711 474.719 567.677 471.967 561.178L379.11 341.848Z" fill="url(#paint38_linear_3_6)"/>
<path opacity="0.57971" fill-rule="evenodd" clip-rule="evenodd" d="M448.78 546.931L368.935 324.929C366.203 317.334 368.067 308.844 373.729 303.091L539.222 134.949C543.39 130.714 549.157 128.443 555.093 128.699L853.335 141.549C858.435 141.768 863.28 143.838 866.965 147.371L1063.21 335.53C1068.49 340.594 1070.76 348.043 1069.19 355.191L1022.27 568.93C1020.7 576.077 1015.52 581.893 1008.6 584.279L751.588 672.934C746.763 674.598 741.496 674.448 736.773 672.511L460.573 559.254C455.076 557 450.791 552.522 448.78 546.931ZM365.171 326.283C361.919 317.241 364.137 307.134 370.878 300.286L536.372 132.143C541.333 127.102 548.198 124.398 555.265 124.703L853.507 137.552C859.579 137.814 865.347 140.278 869.733 144.484L1065.98 332.642C1072.27 338.672 1074.96 347.539 1073.1 356.049L1026.17 569.787C1024.31 578.296 1018.14 585.22 1009.91 588.06L752.893 676.715C747.148 678.697 740.878 678.518 735.256 676.212L459.056 562.955C452.511 560.271 447.41 554.941 445.016 548.285L365.171 326.283Z" fill="url(#paint39_linear_3_6)"/>
<path opacity="0.594203" fill-rule="evenodd" clip-rule="evenodd" d="M422.751 534.173L355.938 310.255C353.643 302.562 355.934 294.234 361.841 288.798L533.786 130.562C538.168 126.53 544.055 124.548 549.984 125.108L842.878 152.814C847.989 153.297 852.745 155.636 856.249 159.388L1039.44 355.563C1044.42 360.896 1046.27 368.431 1044.34 375.466L986.728 584.874C984.792 591.909 979.344 597.435 972.338 599.471L714.584 674.341C709.654 675.773 704.371 675.35 699.732 673.151L433.88 547.145C428.499 544.594 424.454 539.879 422.751 534.173ZM352.105 311.398C349.373 302.241 352.1 292.326 359.133 285.854L531.077 127.619C536.294 122.819 543.303 120.458 550.36 121.126L843.254 148.832C849.339 149.407 855.001 152.192 859.172 156.658L1042.36 352.833C1048.29 359.182 1050.5 368.152 1048.19 376.527L990.584 585.935C988.28 594.31 981.795 600.889 973.453 603.312L715.7 678.183C709.831 679.887 703.541 679.383 698.019 676.766L432.167 550.759C425.761 547.723 420.945 542.11 418.918 535.317L352.105 311.398Z" fill="url(#paint40_linear_3_6)"/>
<path opacity="0.608696" fill-rule="evenodd" clip-rule="evenodd" d="M397.562 521.39L343.758 296.305C341.902 288.541 344.608 280.396 350.742 275.287L528.562 127.17C533.148 123.35 539.142 121.662 545.047 122.528L831.865 164.568C836.974 165.317 841.628 167.921 844.937 171.884L1014.78 375.228C1019.44 380.811 1020.88 388.41 1018.59 395.313L950.615 599.864C948.321 606.767 942.618 611.991 935.541 613.673L677.776 674.924C672.753 676.118 667.466 675.419 662.925 672.961L407.99 534.976C402.742 532.135 398.95 527.195 397.562 521.39ZM339.867 297.235C337.658 287.992 340.88 278.296 348.182 272.213L526.002 124.097C531.461 119.549 538.597 117.54 545.628 118.57L832.445 160.61C838.527 161.501 844.067 164.602 848.007 169.32L1017.85 372.664C1023.4 379.31 1025.11 388.356 1022.38 396.574L954.411 601.126C951.68 609.343 944.891 615.563 936.466 617.565L678.701 678.816C672.721 680.237 666.427 679.405 661.021 676.479L406.086 538.494C399.838 535.112 395.323 529.231 393.672 522.32L339.867 297.235Z" fill="url(#paint41_linear_3_6)"/>
<path opacity="0.623188" fill-rule="evenodd" clip-rule="evenodd" d="M373.199 508.628L332.338 283.117C330.923 275.307 334.032 267.367 340.373 262.594L523.488 124.775C528.267 121.177 534.354 119.789 540.221 120.959L820.275 176.776C825.368 177.791 829.905 180.657 833.008 184.822L989.259 394.481C993.592 400.295 994.619 407.933 991.975 414.686L913.987 613.876C911.343 620.628 905.403 625.539 898.274 626.866L641.207 674.7C636.101 675.65 630.824 674.674 626.396 671.961L382.892 522.791C377.791 519.666 374.265 514.514 373.199 508.628ZM328.402 283.83C326.718 274.532 330.419 265.08 337.968 259.398L521.082 121.579C526.772 117.296 534.019 115.644 541.003 117.036L821.056 172.853C827.12 174.061 832.521 177.474 836.215 182.431L992.466 392.09C997.625 399.012 998.847 408.106 995.7 416.144L917.711 615.334C914.564 623.373 907.493 629.219 899.006 630.798L641.939 678.632C635.861 679.763 629.579 678.602 624.306 675.372L380.803 526.202C374.73 522.482 370.532 516.348 369.263 509.341L328.402 283.83Z" fill="url(#paint42_linear_3_6)"/>
<path opacity="0.637681" fill-rule="evenodd" clip-rule="evenodd" d="M349.652 495.931L321.628 270.724C320.653 262.894 324.15 255.179 330.681 250.751L518.507 123.375C523.47 120.01 529.634 118.927 535.446 120.398L808.089 189.403C813.154 190.685 817.56 193.809 820.445 198.165L962.92 413.278C966.912 419.305 967.523 426.96 964.54 433.544L876.908 626.891C873.924 633.475 867.764 638.061 860.601 639.032L604.921 673.687C599.744 674.389 594.491 673.136 590.188 670.172L358.578 510.632C353.641 507.231 350.392 501.881 349.652 495.931ZM317.658 271.218C316.498 261.897 320.661 252.712 328.435 247.44L516.262 120.065C522.17 116.059 529.508 114.769 536.428 116.52L809.071 185.525C815.101 187.051 820.345 190.77 823.78 195.956L966.255 411.07C971.007 418.244 971.735 427.357 968.183 435.195L880.551 628.542C876.999 636.38 869.665 641.84 861.138 642.996L605.458 677.651C599.295 678.487 593.041 676.994 587.919 673.466L356.309 513.926C350.431 509.877 346.564 503.508 345.683 496.425L317.658 271.218Z" fill="url(#paint43_linear_3_6)"/>
<path opacity="0.652174" fill-rule="evenodd" clip-rule="evenodd" d="M326.907 483.342L311.572 259.159C311.036 251.334 314.906 243.864 321.606 239.786L513.561 122.968C518.695 119.844 524.921 119.069 530.665 120.84L795.293 202.414C800.316 203.962 804.577 207.339 807.232 211.876L935.798 431.582C939.437 437.8 939.634 445.45 936.32 451.847L839.44 638.894C836.126 645.292 829.765 649.544 822.587 650.159L568.959 671.91C563.721 672.359 558.506 670.827 554.343 667.618L335.036 498.54C330.277 494.871 327.317 489.338 326.907 483.342ZM307.581 259.432C306.944 250.117 311.55 241.223 319.526 236.369L511.482 119.552C517.593 115.832 525.006 114.909 531.843 117.017L796.471 198.591C802.452 200.435 807.523 204.454 810.684 209.856L939.25 429.562C943.582 436.965 943.817 446.071 939.872 453.687L842.992 640.734C839.047 648.35 831.474 653.412 822.929 654.145L569.301 675.895C563.065 676.43 556.856 674.607 551.9 670.786L332.594 501.708C326.928 497.34 323.405 490.753 322.916 483.615L307.581 259.432Z" fill="url(#paint44_linear_3_6)"/>
<path opacity="0.666667" fill-rule="evenodd" clip-rule="evenodd" d="M304.948 470.903L302.114 248.447C302.015 240.653 306.24 233.445 313.09 229.725L508.592 123.546C513.886 120.671 520.159 120.208 525.818 122.274L781.872 215.773C786.84 217.587 790.942 221.21 793.355 225.917L907.93 449.356C911.207 455.745 910.992 463.365 907.36 469.559L801.647 649.874C798.016 656.068 791.472 659.978 784.296 660.239L533.361 669.391C528.074 669.584 522.91 667.775 518.9 664.325L312.251 486.556C307.685 482.627 305.025 476.927 304.948 470.903ZM298.114 248.498C297.996 239.219 303.027 230.639 311.181 226.21L506.683 120.031C512.985 116.609 520.453 116.057 527.19 118.517L783.244 212.016C789.159 214.176 794.041 218.488 796.914 224.092L911.49 447.531C915.39 455.137 915.134 464.208 910.811 471.582L805.098 651.897C800.775 659.271 792.984 663.925 784.442 664.237L533.506 673.389C527.213 673.618 521.065 671.464 516.291 667.357L309.643 489.588C304.206 484.911 301.04 478.125 300.948 470.954L298.114 248.498Z" fill="url(#paint45_linear_3_6)"/>
<path opacity="0.681159" fill-rule="evenodd" clip-rule="evenodd" d="M283.756 458.655L293.198 238.612C293.53 230.873 298.095 223.946 305.074 220.588L503.544 125.099C508.985 122.481 515.29 122.332 520.849 124.69L767.814 229.444C772.715 231.522 776.643 235.385 778.805 240.25L879.359 466.565C882.264 473.104 881.64 480.672 877.703 486.646L763.593 659.824C759.656 665.798 752.948 669.357 745.794 669.267L498.165 666.158C492.842 666.091 487.743 664.005 483.899 660.322L290.208 474.718C285.848 470.54 283.498 464.688 283.756 458.655ZM289.202 238.44C289.597 229.228 295.031 220.981 303.34 216.984L501.809 121.494C508.287 118.378 515.793 118.2 522.411 121.007L769.376 225.761C775.21 228.236 779.887 232.834 782.46 238.625L883.014 464.941C886.473 472.725 885.73 481.734 881.043 488.847L766.933 662.024C762.247 669.137 754.261 673.374 745.744 673.267L498.115 670.158C491.778 670.078 485.708 667.595 481.132 663.21L287.44 477.606C282.25 472.633 279.452 465.666 279.76 458.484L289.202 238.44Z" fill="url(#paint46_linear_3_6)"/>
<path opacity="0.695652" fill-rule="evenodd" clip-rule="evenodd" d="M263.31 446.637L284.764 229.673C285.521 222.015 290.406 215.385 297.496 212.392L498.358 127.612C503.935 125.258 510.255 125.425 515.7 128.069L753.108 243.389C757.928 245.73 761.67 249.825 763.57 254.835L850.123 483.178C852.65 489.845 851.622 497.338 847.393 503.078L725.339 668.739C721.11 674.478 714.258 677.681 707.142 677.243L463.407 662.239C458.059 661.909 453.039 659.548 449.375 655.639L268.886 463.064C264.747 458.647 262.714 452.66 263.31 446.637ZM280.783 229.28C281.685 220.163 287.501 212.27 295.941 208.707L496.803 123.926C503.441 121.124 510.966 121.323 517.448 124.471L754.856 239.791C760.594 242.578 765.049 247.453 767.31 253.417L853.863 481.761C856.871 489.697 855.648 498.618 850.613 505.451L728.559 671.111C723.525 677.944 715.368 681.756 706.896 681.235L463.161 666.231C456.794 665.839 450.818 663.028 446.456 658.374L265.967 465.799C261.04 460.542 258.62 453.414 259.329 446.243L280.783 229.28Z" fill="url(#paint47_linear_3_6)"/>
<path opacity="0.710145" fill-rule="evenodd" clip-rule="evenodd" d="M243.589 434.884L276.757 221.647C277.932 214.094 283.118 207.776 290.298 205.151L492.984 131.068C498.683 128.985 505.004 129.468 510.319 132.394L737.75 257.572C742.475 260.173 746.018 264.492 747.646 269.635L820.269 499.168C822.412 505.94 820.986 513.336 816.479 518.827L686.951 676.619C682.444 682.109 675.468 684.949 668.408 684.167L429.123 657.663C423.762 657.069 418.835 654.435 415.364 650.307L248.268 451.629C244.362 446.985 242.656 440.88 243.589 434.884ZM272.804 221.033C274.203 212.04 280.378 204.519 288.925 201.394L491.611 127.311C498.395 124.831 505.92 125.407 512.248 128.89L739.679 254.068C745.304 257.164 749.522 262.306 751.459 268.428L824.083 497.961C826.634 506.023 824.936 514.828 819.571 521.365L690.043 679.157C684.678 685.693 676.372 689.074 667.967 688.143L428.683 661.638C422.301 660.931 416.435 657.796 412.302 652.882L245.206 454.203C240.557 448.675 238.526 441.407 239.636 434.27L272.804 221.033Z" fill="url(#paint48_linear_3_6)"/>
<path opacity="0.724638" fill-rule="evenodd" clip-rule="evenodd" d="M224.566 423.434L269.115 214.547C270.698 207.122 276.167 201.129 283.417 198.875L487.366 135.447C493.174 133.641 499.48 134.441 504.652 137.642L721.73 271.956C726.348 274.814 729.679 279.349 731.025 284.61L789.839 514.507C791.593 521.363 789.776 528.641 785.006 533.867L648.489 683.469C643.719 688.696 636.637 691.169 629.65 690.049L395.344 652.463C389.983 651.603 385.162 648.699 381.896 644.361L228.329 440.448C224.67 435.589 223.297 429.383 224.566 423.434ZM265.203 213.713C267.088 204.873 273.598 197.739 282.229 195.055L486.178 131.628C493.092 129.477 500.599 130.43 506.756 134.24L723.834 268.555C729.332 271.956 733.298 277.355 734.9 283.618L793.714 513.516C795.802 521.677 793.639 530.341 787.961 536.564L651.443 686.165C645.765 692.388 637.335 695.332 629.017 693.998L394.711 656.412C388.328 655.388 382.589 651.931 378.7 646.767L225.134 442.854C220.778 437.07 219.144 429.682 220.654 422.6L265.203 213.713Z" fill="url(#paint49_linear_3_6)"/>
<path opacity="0.73913" fill-rule="evenodd" clip-rule="evenodd" d="M206.217 412.321L261.78 208.382C263.762 201.107 269.492 195.454 276.792 193.569L481.453 140.727C487.356 139.203 493.631 140.32 498.646 143.788L705.046 286.505C709.543 289.615 712.651 294.357 713.707 299.722L758.878 529.175C760.24 536.091 758.041 543.229 753.024 548.179L610.014 689.296C604.997 694.247 597.831 696.351 590.934 694.897L362.102 646.672C356.752 645.545 352.052 642.375 349.002 637.836L209.047 429.553C205.647 424.492 204.614 418.203 206.217 412.321ZM257.921 207.33C260.28 198.67 267.101 191.94 275.792 189.696L480.453 136.854C487.481 135.04 494.951 136.369 500.921 140.498L707.321 283.215C712.675 286.917 716.374 292.562 717.631 298.949L762.803 528.403C764.424 536.636 761.806 545.133 755.833 551.027L612.824 692.143C606.851 698.037 598.32 700.541 590.109 698.811L361.277 650.586C354.908 649.244 349.313 645.47 345.682 640.067L205.727 431.784C201.679 425.759 200.449 418.272 202.357 411.269L257.921 207.33Z" fill="url(#paint50_linear_3_6)"/>
<path opacity="0.753623" fill-rule="evenodd" clip-rule="evenodd" d="M188.513 401.574L254.695 203.156C257.064 196.055 263.033 190.751 270.364 189.236L475.196 146.882C481.182 145.644 487.41 147.076 492.254 150.803L687.697 301.181C692.061 304.539 694.932 309.477 695.691 314.931L727.435 543.151C728.402 550.105 725.83 557.081 720.582 561.744L571.589 694.112C566.34 698.774 559.11 700.506 552.319 698.727L329.425 640.326C324.098 638.93 319.533 635.498 316.712 630.769L190.398 418.976C187.267 413.726 186.579 407.373 188.513 401.574ZM250.901 201.89C253.72 193.437 260.827 187.123 269.554 185.318L474.386 142.965C481.512 141.491 488.926 143.196 494.693 147.633L690.136 298.011C695.332 302.008 698.749 307.887 699.653 314.38L731.396 542.6C732.548 550.878 729.487 559.183 723.239 564.734L574.245 697.102C567.997 702.653 559.389 704.714 551.305 702.596L328.412 644.196C322.07 642.534 316.635 638.448 313.277 632.817L186.963 421.025C183.236 414.775 182.416 407.212 184.719 400.309L250.901 201.89Z" fill="url(#paint51_linear_3_6)"/>
<path opacity="0.768116" fill-rule="evenodd" clip-rule="evenodd" d="M171.426 391.226L247.8 198.872C250.542 191.965 256.73 187.022 264.072 185.874L468.546 153.883C474.6 152.935 480.766 154.68 485.426 158.658L669.682 315.948C673.901 319.549 676.524 324.673 676.978 330.201L695.553 556.419C696.125 563.387 693.192 570.182 687.73 574.545L533.271 697.929C527.808 702.293 520.533 703.652 513.864 701.554L297.34 633.461C292.048 631.797 287.63 628.107 285.05 623.197L172.354 408.744C169.504 403.32 169.164 396.921 171.426 391.226ZM244.082 197.395C247.347 189.174 254.713 183.289 263.453 181.922L467.928 149.931C475.135 148.803 482.475 150.88 488.023 155.616L672.279 312.906C677.302 317.193 680.424 323.293 680.964 329.874L699.539 556.092C700.221 564.386 696.729 572.476 690.227 577.671L535.767 701.055C529.264 706.249 520.603 707.867 512.664 705.37L296.14 637.276C289.841 635.295 284.581 630.903 281.509 625.058L168.813 410.605C165.42 404.148 165.016 396.53 167.708 389.75L244.082 197.395Z" fill="url(#paint52_linear_3_6)"/>
<path opacity="0.782609" fill-rule="evenodd" clip-rule="evenodd" d="M154.925 381.303L241.038 195.527C244.139 188.836 250.523 184.262 257.857 183.478L461.458 161.698C467.567 161.045 473.655 163.099 478.119 167.319L651.006 330.769C655.066 334.608 657.429 339.907 657.572 345.493L663.281 568.964C663.459 575.923 660.177 582.518 654.518 586.572L495.119 700.768C489.46 704.822 482.16 705.808 475.628 703.401L265.87 626.113C260.626 624.182 256.369 620.24 254.041 615.16L154.888 398.886C152.328 393.302 152.341 386.876 154.925 381.303ZM237.408 193.845C241.101 185.879 248.701 180.434 257.431 179.5L461.033 157.721C468.305 156.943 475.553 159.388 480.867 164.413L653.754 327.863C658.587 332.433 661.401 338.741 661.57 345.391L667.28 568.862C667.491 577.147 663.584 584.997 656.847 589.824L497.448 704.019C490.712 708.845 482.021 710.02 474.245 707.155L264.487 629.867C258.245 627.567 253.177 622.874 250.404 616.827L151.252 400.553C148.204 393.905 148.22 386.256 151.296 379.621L237.408 193.845Z" fill="url(#paint53_linear_3_6)"/>
<path opacity="0.797101" fill-rule="evenodd" clip-rule="evenodd" d="M138.979 371.831L234.352 193.118C237.797 186.661 244.355 182.464 251.661 182.04L453.89 170.295C460.039 169.938 466.034 172.298 470.289 176.751L631.671 345.611C635.561 349.681 637.654 355.143 637.48 360.77L630.667 580.777C630.452 587.704 626.834 594.079 620.997 597.815L457.19 702.648C451.352 706.384 444.048 706.999 437.668 704.292L235.038 618.323C229.855 616.125 225.772 611.937 223.705 606.699L137.972 389.426C135.711 383.697 136.079 377.265 138.979 371.831ZM230.823 191.234C234.925 183.548 242.732 178.552 251.429 178.047L453.658 166.302C460.978 165.877 468.115 168.687 473.181 173.987L634.563 342.847C639.194 347.693 641.685 354.195 641.478 360.894L634.665 580.901C634.409 589.148 630.102 596.737 623.153 601.184L459.346 706.017C452.397 710.464 443.701 711.197 436.106 707.974L233.476 622.006C227.305 619.388 222.445 614.402 219.985 608.168L134.251 390.895C131.56 384.074 131.998 376.417 135.45 369.948L230.823 191.234Z" fill="url(#paint54_linear_3_6)"/>
<path opacity="0.811594" fill-rule="evenodd" clip-rule="evenodd" d="M123.554 362.835L227.684 191.634C231.457 185.431 238.166 181.617 245.426 181.548L445.798 179.638C451.972 179.579 457.86 182.241 461.895 186.915L611.684 360.436C615.392 364.731 617.203 370.344 616.707 375.995L597.756 591.849C597.152 598.722 593.212 604.859 587.215 608.269L419.536 703.594C413.539 707.004 406.25 707.25 400.036 704.253L204.862 610.13C199.751 607.666 195.855 603.238 194.061 597.856L121.573 380.388C119.62 374.53 120.345 368.11 123.554 362.835ZM224.267 189.556C228.758 182.171 236.745 177.631 245.388 177.548L445.76 175.638C453.11 175.568 460.119 178.737 464.923 184.301L614.712 357.823C619.126 362.936 621.283 369.617 620.692 376.345L601.74 592.199C601.022 600.381 596.331 607.687 589.192 611.746L421.513 707.071C414.374 711.13 405.696 711.424 398.298 707.856L203.124 613.733C197.04 610.799 192.402 605.528 190.267 599.12L117.778 381.653C115.454 374.679 116.316 367.036 120.136 360.756L224.267 189.556Z" fill="url(#paint55_linear_3_6)"/>
<path opacity="0.826087" fill-rule="evenodd" clip-rule="evenodd" d="M108.617 354.334L220.981 191.065C225.064 185.134 231.901 181.707 239.097 181.987L437.145 189.688C443.331 189.929 449.096 192.887 452.899 197.771L591.053 375.212C594.567 379.724 596.088 385.474 595.265 391.133L564.596 602.176C563.609 608.971 559.362 614.854 553.223 617.93L382.213 703.634C376.074 706.71 368.819 706.592 362.785 703.316L175.36 601.574C170.334 598.846 166.638 594.186 165.126 588.671L105.663 371.793C104.026 365.822 105.107 359.434 108.617 354.334ZM217.686 188.798C222.546 181.736 230.686 177.657 239.252 177.99L437.3 185.691C444.665 185.978 451.527 189.499 456.055 195.314L594.21 372.755C598.392 378.127 600.203 384.972 599.224 391.709L568.554 602.751C567.379 610.84 562.323 617.844 555.015 621.506L384.005 707.21C376.697 710.872 368.061 710.731 360.877 706.831L173.452 605.089C167.469 601.842 163.069 596.294 161.269 589.728L101.806 372.85C99.857 365.743 101.144 358.137 105.322 352.066L217.686 188.798Z" fill="url(#paint56_linear_3_6)"/>
<path opacity="0.84058" fill-rule="evenodd" clip-rule="evenodd" d="M94.1326 346.349L214.188 191.396C218.562 185.752 225.504 182.716 232.617 183.338L427.893 200.406C434.076 200.947 439.703 204.195 443.264 209.278L569.788 389.905C573.095 394.627 574.316 400.5 573.164 406.149L531.233 611.755C529.868 618.45 525.331 624.062 519.07 626.799L345.268 702.798C339.007 705.535 331.807 705.056 325.964 701.513L146.546 592.696C141.617 589.707 138.134 584.822 136.913 579.188L90.2094 363.658C88.8949 357.593 90.3312 351.256 94.1326 346.349ZM211.026 188.946C216.233 182.227 224.497 178.613 232.966 179.353L428.241 196.421C435.602 197.065 442.301 200.931 446.541 206.983L573.064 387.61C577.002 393.231 578.455 400.224 577.084 406.949L535.153 612.554C533.527 620.524 528.126 627.205 520.673 630.464L346.87 706.463C339.418 709.722 330.845 709.151 323.89 704.933L144.472 596.116C138.604 592.557 134.457 586.742 133.003 580.035L86.3001 364.506C84.7353 357.284 86.4451 349.74 90.9706 343.9L211.026 188.946Z" fill="url(#paint57_linear_3_6)"/>
<path opacity="0.855072" fill-rule="evenodd" clip-rule="evenodd" d="M80.0671 338.897L207.254 192.609C211.899 187.266 218.923 184.624 225.937 185.579L418.01 211.75C424.176 212.59 429.652 216.121 432.96 221.392L547.9 404.481C550.991 409.405 551.903 415.388 550.418 421.009L497.715 620.587C495.98 627.16 491.169 632.486 484.806 634.88L308.751 701.119C302.388 703.513 295.26 702.679 289.622 698.88L118.434 583.538C113.613 580.29 110.354 575.19 109.433 569.45L75.1801 356.003C74.1941 349.859 75.984 343.593 80.0671 338.897ZM204.235 189.984C209.765 183.624 218.127 180.478 226.477 181.616L418.55 207.786C425.89 208.787 432.409 212.991 436.348 219.265L551.288 402.355C554.967 408.216 556.053 415.339 554.286 422.03L501.583 621.608C499.516 629.433 493.79 635.774 486.215 638.624L310.16 704.863C302.585 707.713 294.099 706.719 287.387 702.197L116.198 586.856C110.46 582.989 106.58 576.917 105.484 570.084L71.2307 356.637C70.0568 349.322 72.1877 341.863 77.0484 336.273L204.235 189.984Z" fill="url(#paint58_linear_3_6)"/>
<path opacity="0.869565" fill-rule="evenodd" clip-rule="evenodd" d="M66.3836 331.992L200.127 194.681C205.022 189.655 212.105 187.406 219.003 188.687L407.464 223.676C413.598 224.814 418.909 228.622 421.956 234.067L525.403 418.911C528.266 424.026 528.86 430.106 527.042 435.679L464.086 628.676C461.989 635.105 456.924 640.131 450.478 642.178L272.707 698.633C266.262 700.68 259.225 699.497 253.802 695.456L91.0308 574.143C86.3305 570.64 83.3084 565.331 82.6952 559.501L60.5422 348.841C59.8896 342.636 62.0301 336.462 66.3836 331.992ZM197.261 191.89C203.089 185.907 211.521 183.229 219.733 184.754L408.194 219.743C415.497 221.099 421.819 225.632 425.446 232.114L528.893 416.957C532.302 423.047 533.009 430.285 530.845 436.919L467.889 629.916C465.392 637.57 459.362 643.554 451.688 645.991L273.918 702.445C266.245 704.882 257.867 703.474 251.412 698.663L88.6405 577.35C83.0448 573.18 79.4471 566.86 78.7172 559.92L56.5641 349.259C55.7873 341.872 58.3355 334.522 63.5182 329.201L197.261 191.89Z" fill="url(#paint59_linear_3_6)"/>
<path opacity="0.884058" fill-rule="evenodd" clip-rule="evenodd" d="M53.047 325.647L192.758 197.591C197.884 192.893 205.002 191.036 211.769 192.633L396.227 236.138C402.316 237.575 407.448 241.65 410.224 247.256L502.311 433.162C504.936 438.46 505.205 444.62 503.052 450.128L430.392 636.027C427.943 642.292 422.642 647.005 416.133 648.703L237.181 695.377C230.672 697.075 223.744 695.552 218.547 691.281L64.3462 564.552C59.7778 560.797 57.0041 555.291 56.7064 549.385L46.2631 342.185C45.9482 335.937 48.4352 329.874 53.047 325.647ZM190.056 194.642C196.157 189.05 204.631 186.839 212.687 188.739L397.146 232.245C404.394 233.955 410.503 238.807 413.809 245.481L505.896 431.386C509.02 437.694 509.341 445.027 506.778 451.584L434.118 637.484C431.202 644.942 424.891 650.552 417.142 652.573L238.19 699.248C230.442 701.269 222.194 699.456 216.007 694.371L61.8065 567.642C56.3679 563.172 53.0658 556.617 52.7115 549.586L42.2681 342.387C41.8932 334.949 44.854 327.731 50.3442 322.698L190.056 194.642Z" fill="url(#paint60_linear_3_6)"/>
<path opacity="0.898551" fill-rule="evenodd" clip-rule="evenodd" d="M40.0203 319.872L185.102 201.31C190.435 196.952 197.566 195.486 204.186 197.387L384.275 249.092C390.304 250.823 395.243 255.159 397.742 260.912L478.641 447.205C481.018 452.677 480.955 458.902 478.467 464.325L396.676 642.651C393.887 648.731 388.369 653.119 381.817 654.466L202.211 691.393C195.659 692.741 188.857 690.886 183.896 686.399L38.3839 554.807C33.959 550.806 31.445 545.111 31.4697 539.145L32.309 336.046C32.3349 329.774 35.1634 323.841 40.0203 319.872ZM182.571 198.213C188.92 193.025 197.409 191.279 205.29 193.542L385.379 245.248C392.556 247.308 398.437 252.47 401.411 259.319L482.31 445.612C485.139 452.126 485.064 459.537 482.103 465.993L400.311 644.319C396.992 651.557 390.422 656.78 382.622 658.384L203.016 695.312C195.216 696.915 187.119 694.707 181.213 689.366L35.701 557.774C30.4333 553.01 27.4403 546.231 27.4697 539.129L28.309 336.03C28.3399 328.563 31.7071 321.5 37.4892 316.775L182.571 198.213Z" fill="url(#paint61_linear_3_6)"/>
<path opacity="0.913043" fill-rule="evenodd" clip-rule="evenodd" d="M27.2677 314.675L177.113 205.811C182.631 201.802 189.753 200.723 196.211 202.916L371.585 262.49C377.54 264.513 382.275 269.098 384.488 274.985L454.412 461.013C456.53 466.649 456.128 472.922 453.307 478.241L362.98 648.558C359.864 654.433 354.15 658.485 347.575 659.482L167.835 686.723C161.26 687.72 154.602 685.543 149.885 680.855L13.1468 544.953C8.87668 540.709 6.63344 534.836 6.98665 528.826L18.647 330.433C19.016 324.154 22.1795 318.372 27.2677 314.675ZM174.762 202.575C181.331 197.802 189.809 196.517 197.497 199.129L372.871 258.702C379.961 261.111 385.598 266.569 388.232 273.578L458.156 459.606C460.678 466.315 460.199 473.783 456.841 480.115L366.514 650.432C362.805 657.426 356.001 662.25 348.174 663.436L168.435 690.678C160.607 691.864 152.68 689.273 147.065 683.692L10.3271 547.79C5.24357 542.737 2.57303 535.746 2.99356 528.591L14.6539 330.198C15.0931 322.724 18.8592 315.84 24.9166 311.439L174.762 202.575Z" fill="url(#paint62_linear_3_6)"/>
<path opacity="0.927536" fill-rule="evenodd" clip-rule="evenodd" d="M14.7516 310.062L168.748 211.061C174.428 207.409 181.518 206.712 187.801 209.187L358.137 276.282C364.004 278.593 368.522 283.419 370.443 289.425L429.64 474.558C431.491 480.346 430.744 486.652 427.591 491.848L329.346 653.762C325.917 659.413 320.027 663.12 313.448 663.767L134.089 681.411C127.51 682.058 121.011 679.57 116.547 674.695L-11.366 535.029C-15.4703 530.548 -17.4321 524.508 -16.7447 518.47L5.24262 325.351C5.95598 319.086 9.44719 313.472 14.7516 310.062ZM166.585 207.696C173.347 203.349 181.787 202.519 189.267 205.465L359.603 272.561C366.588 275.312 371.967 281.056 374.253 288.207L433.45 473.34C435.653 480.231 434.764 487.738 431.011 493.923L332.766 655.837C328.683 662.564 321.672 666.977 313.84 667.748L134.481 685.392C126.649 686.162 118.912 683.2 113.597 677.397L-14.3159 537.731C-19.2019 532.396 -21.5374 525.206 -20.719 518.018L1.26831 324.899C2.11753 317.44 6.27373 310.757 12.5886 306.697L166.585 207.696Z" fill="url(#paint63_linear_3_6)"/>
<path opacity="0.942029" fill-rule="evenodd" clip-rule="evenodd" d="M2.43701 306.036L159.969 217.027C165.787 213.739 172.824 213.417 178.918 216.16L343.916 290.421C349.682 293.016 353.971 298.071 355.594 304.182L404.348 487.815C405.923 493.745 404.825 500.067 401.344 505.119L295.814 658.278C292.087 663.688 286.043 667.041 279.481 667.341L101.004 675.503C94.4416 675.803 88.117 673.015 83.9116 667.969L-35.1563 525.08C-39.0839 520.366 -40.7538 514.171 -39.7272 508.122L-7.93636 320.806C-6.87835 314.572 -3.06791 309.147 2.43701 306.036ZM158.001 213.544C164.928 209.63 173.304 209.247 180.56 212.513L345.558 286.773C352.422 289.862 357.528 295.88 359.46 303.155L408.214 486.789C410.088 493.848 408.782 501.374 404.638 507.388L299.108 660.548C294.671 666.988 287.476 670.98 279.664 671.337L101.187 679.499C93.3744 679.856 85.845 676.537 80.8387 670.529L-38.2292 527.64C-42.9049 522.029 -44.893 514.654 -43.6709 507.453L-11.88 320.137C-10.6205 312.715 -6.08422 306.257 0.469286 302.554L158.001 213.544Z" fill="url(#paint64_linear_3_6)"/>
<path opacity="0.956522" fill-rule="evenodd" clip-rule="evenodd" d="M-9.71293 302.599L150.736 223.672C156.669 220.753 163.631 220.8 169.525 223.797L328.908 304.855C334.559 307.729 338.609 313.002 339.928 319.203L378.557 500.759C379.846 506.819 378.394 513.139 374.588 518.029L262.423 662.127C258.414 667.277 252.238 670.27 245.711 670.227L68.6081 669.047C62.0816 669.004 55.9462 665.928 52.0062 660.725L-58.2294 515.145C-61.9696 510.206 -63.3378 503.867 -61.9678 497.824L-20.9237 316.799C-19.5218 310.616 -15.4017 305.398 -9.71293 302.599ZM148.97 220.083C156.034 216.608 164.321 216.663 171.338 220.232L330.721 301.29C337.448 304.711 342.27 310.989 343.841 318.371L382.469 499.927C384.004 507.141 383.275 514.665 378.745 520.485L266.579 664.584C261.806 670.715 253.454 674.279 245.685 674.227L68.5815 673.047C60.8118 672.995 53.5078 669.334 48.8173 663.139L-61.4183 517.56C-65.871 511.679 -67.4997 504.133 -65.8688 496.94L-24.8247 315.915C-23.1558 308.554 -18.2509 302.341 -11.4785 299.01L148.97 220.083Z" fill="url(#paint65_linear_3_6)"/>
<path opacity="0.971014" fill-rule="evenodd" clip-rule="evenodd" d="M-21.734 299.75L141.015 230.96C147.039 228.413 153.905 228.819 159.588 232.057L313.102 319.536C318.625 322.683 322.426 328.163 323.438 334.438L352.289 513.368C353.285 519.547 351.473 525.847 347.348 530.554L229.207 665.326C224.934 670.201 218.648 672.829 212.177 672.447L36.9267 662.091C30.4551 661.709 24.5229 658.359 20.8534 653.015L-80.593 505.266C-84.1355 500.107 -85.1922 493.637 -83.4752 487.618L-33.7524 313.332C-32.0084 307.219 -27.5893 302.225 -21.734 299.75ZM139.457 227.275C146.629 224.244 154.803 224.727 161.568 228.582L315.083 316.06C321.658 319.807 326.182 326.331 327.387 333.802L356.238 512.731C357.424 520.087 355.267 527.588 350.356 533.19L232.215 667.963C227.128 673.767 219.645 676.895 211.941 676.44L36.6908 666.084C28.9865 665.629 21.9244 661.641 17.5559 655.279L-83.8905 507.53C-88.1077 501.388 -89.3658 493.686 -87.3217 486.521L-37.5989 312.234C-35.5227 304.957 -30.2619 299.012 -23.2913 296.066L139.457 227.275Z" fill="url(#paint66_linear_3_6)"/>
<path opacity="0.985507" fill-rule="evenodd" clip-rule="evenodd" d="M-33.6594 297.486L130.775 238.85C136.866 236.678 143.617 237.433 149.077 240.897L296.494 334.412C301.877 337.826 305.417 343.5 306.118 349.835L325.569 525.62C326.265 531.905 324.091 538.169 319.652 542.672L196.205 667.901C191.686 672.485 185.314 674.744 178.916 674.028L5.98383 654.687C-0.413873 653.971 -6.1299 650.361 -9.52468 644.891L-102.255 495.484C-105.589 490.111 -106.325 483.522 -104.258 477.546L-46.4526 310.402C-44.3693 304.378 -39.6629 299.627 -33.6594 297.486ZM129.431 235.082C136.682 232.497 144.72 233.396 151.22 237.519L298.637 331.034C305.045 335.099 309.259 341.854 310.094 349.395L329.545 525.18C330.373 532.662 327.785 540.119 322.5 545.48L199.054 670.709C193.674 676.167 186.088 678.855 178.471 678.003L5.53922 658.662C-2.07708 657.81 -8.88189 653.512 -12.9233 647L-105.653 497.593C-109.623 491.197 -110.499 483.353 -108.039 476.239L-50.2329 309.095C-47.7528 301.924 -42.15 296.267 -35.0029 293.718L129.431 235.082Z" fill="url(#paint67_linear_3_6)"/>
<path fill-rule="evenodd" clip-rule="evenodd" d="M-45.526 295.802L119.985 247.301C126.118 245.504 132.735 246.597 137.964 250.272L279.078 349.433C284.307 353.108 287.578 358.963 287.965 365.342L298.42 537.496C298.808 543.875 296.269 550.083 291.524 554.363L163.447 669.873C158.702 674.154 152.265 676.04 145.96 674.998L-24.204 646.883C-30.5094 645.842 -35.9972 641.985 -39.114 636.406L-123.228 485.838C-126.345 480.258 -126.752 473.563 -124.333 467.648L-59.0584 308.007C-56.6397 302.091 -51.6589 297.599 -45.526 295.802ZM118.86 243.462C126.161 241.323 134.039 242.625 140.264 246.999L281.378 346.161C287.602 350.535 291.497 357.506 291.958 365.1L302.413 537.253C302.874 544.847 299.852 552.238 294.203 557.334L166.126 672.844C160.477 677.939 152.814 680.185 145.308 678.944L-24.8561 650.83C-32.3624 649.59 -38.8956 644.999 -42.606 638.357L-126.72 487.788C-130.431 481.146 -130.915 473.176 -128.036 466.134L-62.7609 306.493C-59.8815 299.451 -53.9519 294.103 -46.6508 291.963L118.86 243.462Z" fill="url(#paint68_linear_3_6)"/>
</g>
<defs>
<linearGradient id="paint0_linear_3_6" x1="1711.87" y1="841.946" x2="1415.2" y2="-295.489" gradientUnits="userSpaceOnUse">
<stop stop-color="#FF1CF7"/>
<stop offset="1" stop-color="#00F0FF"/>
</linearGradient>
<linearGradient id="paint1_linear_3_6" x1="1660.28" y1="846.276" x2="1425.64" y2="-294.964" gradientUnits="userSpaceOnUse">
<stop stop-color="#FF1CF7"/>
<stop offset="1" stop-color="#00F0FF"/>
</linearGradient>
<linearGradient id="paint2_linear_3_6" x1="1608.9" y1="848.994" x2="1435.86" y2="-292.705" gradientUnits="userSpaceOnUse">
<stop stop-color="#FF1CF7"/>
<stop offset="1" stop-color="#00F0FF"/>
</linearGradient>
<linearGradient id="paint3_linear_3_6" x1="1557.8" y1="850.125" x2="1445.77" y2="-288.74" gradientUnits="userSpaceOnUse">
<stop stop-color="#FF1CF7"/>
<stop offset="1" stop-color="#00F0FF"/>
</linearGradient>
<linearGradient id="paint4_linear_3_6" x1="1507.08" y1="849.7" x2="1455.27" y2="-283.104" gradientUnits="userSpaceOnUse">
<stop stop-color="#FF1CF7"/>
<stop offset="1" stop-color="#00F0FF"/>
</linearGradient>
<linearGradient id="paint5_linear_3_6" x1="1456.81" y1="847.755" x2="1464.29" y2="-275.832" gradientUnits="userSpaceOnUse">
<stop stop-color="#FF1CF7"/>
<stop offset="1" stop-color="#00F0FF"/>
</linearGradient>
<linearGradient id="paint6_linear_3_6" x1="1407.07" y1="844.329" x2="1472.74" y2="-266.969" gradientUnits="userSpaceOnUse">
<stop stop-color="#FF1CF7"/>
<stop offset="1" stop-color="#00F0FF"/>
</linearGradient>
<linearGradient id="paint7_linear_3_6" x1="1357.94" y1="839.467" x2="1480.53" y2="-256.562" gradientUnits="userSpaceOnUse">
<stop stop-color="#FF1CF7"/>
<stop offset="1" stop-color="#00F0FF"/>
</linearGradient>
<linearGradient id="paint8_linear_3_6" x1="1309.5" y1="833.214" x2="1487.58" y2="-244.66" gradientUnits="userSpaceOnUse">
<stop stop-color="#FF1CF7"/>
<stop offset="1" stop-color="#00F0FF"/>
</linearGradient>
<linearGradient id="paint9_linear_3_6" x1="1261.8" y1="825.623" x2="1493.83" y2="-231.32" gradientUnits="userSpaceOnUse">
<stop stop-color="#FF1CF7"/>
<stop offset="1" stop-color="#00F0FF"/>
</linearGradient>
<linearGradient id="paint10_linear_3_6" x1="1214.93" y1="816.749" x2="1499.2" y2="-216.599" gradientUnits="userSpaceOnUse">
<stop stop-color="#FF1CF7"/>
<stop offset="1" stop-color="#00F0FF"/>
</linearGradient>
<linearGradient id="paint11_linear_3_6" x1="1168.93" y1="806.648" x2="1503.63" y2="-200.561" gradientUnits="userSpaceOnUse">
<stop stop-color="#FF1CF7"/>
<stop offset="1" stop-color="#00F0FF"/>
</linearGradient>
<linearGradient id="paint12_linear_3_6" x1="1123.87" y1="795.381" x2="1507.04" y2="-183.269" gradientUnits="userSpaceOnUse">
<stop stop-color="#FF1CF7"/>
<stop offset="1" stop-color="#00F0FF"/>
</linearGradient>
<linearGradient id="paint13_linear_3_6" x1="1079.81" y1="783.013" x2="1509.39" y2="-164.793" gradientUnits="userSpaceOnUse">
<stop stop-color="#FF1CF7"/>
<stop offset="1" stop-color="#00F0FF"/>
</linearGradient>
<linearGradient id="paint14_linear_3_6" x1="1036.79" y1="769.609" x2="1510.61" y2="-145.203" gradientUnits="userSpaceOnUse">
<stop stop-color="#FF1CF7"/>
<stop offset="1" stop-color="#00F0FF"/>
</linearGradient>
<linearGradient id="paint15_linear_3_6" x1="994.861" y1="755.237" x2="1510.66" y2="-124.573" gradientUnits="userSpaceOnUse">
<stop stop-color="#FF1CF7"/>
<stop offset="1" stop-color="#00F0FF"/>
</linearGradient>
<linearGradient id="paint16_linear_3_6" x1="954.065" y1="739.968" x2="1509.5" y2="-102.978" gradientUnits="userSpaceOnUse">
<stop stop-color="#FF1CF7"/>
<stop offset="1" stop-color="#00F0FF"/>
</linearGradient>
<linearGradient id="paint17_linear_3_6" x1="914.44" y1="723.873" x2="1507.08" y2="-80.4959" gradientUnits="userSpaceOnUse">
<stop stop-color="#FF1CF7"/>
<stop offset="1" stop-color="#00F0FF"/>
</linearGradient>
<linearGradient id="paint18_linear_3_6" x1="876.018" y1="707.026" x2="1503.36" y2="-57.2052" gradientUnits="userSpaceOnUse">
<stop stop-color="#FF1CF7"/>
<stop offset="1" stop-color="#00F0FF"/>
</linearGradient>
<linearGradient id="paint19_linear_3_6" x1="838.83" y1="689.501" x2="1498.31" y2="-33.1863" gradientUnits="userSpaceOnUse">
<stop stop-color="#FF1CF7"/>
<stop offset="1" stop-color="#00F0FF"/>
</linearGradient>
<linearGradient id="paint20_linear_3_6" x1="802.9" y1="671.375" x2="1491.91" y2="-8.52023" gradientUnits="userSpaceOnUse">
<stop stop-color="#FF1CF7"/>
<stop offset="1" stop-color="#00F0FF"/>
</linearGradient>
<linearGradient id="paint21_linear_3_6" x1="768.248" y1="652.723" x2="1484.15" y2="16.7107" gradientUnits="userSpaceOnUse">
<stop stop-color="#FF1CF7"/>
<stop offset="1" stop-color="#00F0FF"/>
</linearGradient>
<linearGradient id="paint22_linear_3_6" x1="734.888" y1="633.623" x2="1474.98" y2="42.4242" gradientUnits="userSpaceOnUse">
<stop stop-color="#FF1CF7"/>
<stop offset="1" stop-color="#00F0FF"/>
</linearGradient>
<linearGradient id="paint23_linear_3_6" x1="702.833" y1="614.15" x2="1464.42" y2="68.5376" gradientUnits="userSpaceOnUse">
<stop stop-color="#FF1CF7"/>
<stop offset="1" stop-color="#00F0FF"/>
</linearGradient>
<linearGradient id="paint24_linear_3_6" x1="672.089" y1="594.382" x2="1452.45" y2="94.9684" gradientUnits="userSpaceOnUse">
<stop stop-color="#FF1CF7"/>
<stop offset="1" stop-color="#00F0FF"/>
</linearGradient>
<linearGradient id="paint25_linear_3_6" x1="642.657" y1="574.395" x2="1439.07" y2="121.634" gradientUnits="userSpaceOnUse">
<stop stop-color="#FF1CF7"/>
<stop offset="1" stop-color="#00F0FF"/>
</linearGradient>
<linearGradient id="paint26_linear_3_6" x1="614.536" y1="554.265" x2="1424.28" y2="148.454" gradientUnits="userSpaceOnUse">
<stop stop-color="#FF1CF7"/>
<stop offset="1" stop-color="#00F0FF"/>
</linearGradient>
<linearGradient id="paint27_linear_3_6" x1="587.719" y1="534.067" x2="1408.08" y2="175.348" gradientUnits="userSpaceOnUse">
<stop stop-color="#FF1CF7"/>
<stop offset="1" stop-color="#00F0FF"/>
</linearGradient>
<linearGradient id="paint28_linear_3_6" x1="562.196" y1="513.875" x2="1390.5" y2="202.235" gradientUnits="userSpaceOnUse">
<stop stop-color="#FF1CF7"/>
<stop offset="1" stop-color="#00F0FF"/>
</linearGradient>
<linearGradient id="paint29_linear_3_6" x1="537.952" y1="493.76" x2="1371.54" y2="229.038" gradientUnits="userSpaceOnUse">
<stop stop-color="#FF1CF7"/>
<stop offset="1" stop-color="#00F0FF"/>
</linearGradient>
<linearGradient id="paint30_linear_3_6" x1="514.966" y1="473.795" x2="1351.23" y2="255.681" gradientUnits="userSpaceOnUse">
<stop stop-color="#FF1CF7"/>
<stop offset="1" stop-color="#00F0FF"/>
</linearGradient>
<linearGradient id="paint31_linear_3_6" x1="493.218" y1="454.049" x2="1329.59" y2="282.089" gradientUnits="userSpaceOnUse">
<stop stop-color="#FF1CF7"/>
<stop offset="1" stop-color="#00F0FF"/>
</linearGradient>
<linearGradient id="paint32_linear_3_6" x1="472.679" y1="434.587" x2="1306.64" y2="308.19" gradientUnits="userSpaceOnUse">
<stop stop-color="#FF1CF7"/>
<stop offset="1" stop-color="#00F0FF"/>
</linearGradient>
<linearGradient id="paint33_linear_3_6" x1="453.321" y1="415.476" x2="1282.43" y2="333.914" gradientUnits="userSpaceOnUse">
<stop stop-color="#FF1CF7"/>
<stop offset="1" stop-color="#00F0FF"/>
</linearGradient>
<linearGradient id="paint34_linear_3_6" x1="435.109" y1="396.779" x2="1256.99" y2="359.194" gradientUnits="userSpaceOnUse">
<stop stop-color="#FF1CF7"/>
<stop offset="1" stop-color="#00F0FF"/>
</linearGradient>
<linearGradient id="paint35_linear_3_6" x1="418.006" y1="378.554" x2="1230.35" y2="383.966" gradientUnits="userSpaceOnUse">
<stop stop-color="#FF1CF7"/>
<stop offset="1" stop-color="#00F0FF"/>
</linearGradient>
<linearGradient id="paint36_linear_3_6" x1="401.973" y1="360.86" x2="1202.56" y2="408.167" gradientUnits="userSpaceOnUse">
<stop stop-color="#FF1CF7"/>
<stop offset="1" stop-color="#00F0FF"/>
</linearGradient>
<linearGradient id="paint37_linear_3_6" x1="386.967" y1="343.751" x2="1173.67" y2="431.74" gradientUnits="userSpaceOnUse">
<stop stop-color="#FF1CF7"/>
<stop offset="1" stop-color="#00F0FF"/>
</linearGradient>
<linearGradient id="paint38_linear_3_6" x1="372.942" y1="327.278" x2="1143.73" y2="454.628" gradientUnits="userSpaceOnUse">
<stop stop-color="#FF1CF7"/>
<stop offset="1" stop-color="#00F0FF"/>
</linearGradient>
<linearGradient id="paint39_linear_3_6" x1="359.85" y1="311.49" x2="1112.78" y2="476.781" gradientUnits="userSpaceOnUse">
<stop stop-color="#FF1CF7"/>
<stop offset="1" stop-color="#00F0FF"/>
</linearGradient>
<linearGradient id="paint40_linear_3_6" x1="347.64" y1="296.431" x2="1080.89" y2="498.149" gradientUnits="userSpaceOnUse">
<stop stop-color="#FF1CF7"/>
<stop offset="1" stop-color="#00F0FF"/>
</linearGradient>
<linearGradient id="paint41_linear_3_6" x1="336.26" y1="282.144" x2="1048.1" y2="518.689" gradientUnits="userSpaceOnUse">
<stop stop-color="#FF1CF7"/>
<stop offset="1" stop-color="#00F0FF"/>
</linearGradient>
<linearGradient id="paint42_linear_3_6" x1="325.655" y1="268.665" x2="1014.48" y2="538.359" gradientUnits="userSpaceOnUse">
<stop stop-color="#FF1CF7"/>
<stop offset="1" stop-color="#00F0FF"/>
</linearGradient>
<linearGradient id="paint43_linear_3_6" x1="315.768" y1="256.03" x2="980.083" y2="557.121" gradientUnits="userSpaceOnUse">
<stop stop-color="#FF1CF7"/>
<stop offset="1" stop-color="#00F0FF"/>
</linearGradient>
<linearGradient id="paint44_linear_3_6" x1="306.544" y1="244.27" x2="944.978" y2="574.944" gradientUnits="userSpaceOnUse">
<stop stop-color="#FF1CF7"/>
<stop offset="1" stop-color="#00F0FF"/>
</linearGradient>
<linearGradient id="paint45_linear_3_6" x1="297.922" y1="233.411" x2="909.224" y2="591.798" gradientUnits="userSpaceOnUse">
<stop stop-color="#FF1CF7"/>
<stop offset="1" stop-color="#00F0FF"/>
</linearGradient>
<linearGradient id="paint46_linear_3_6" x1="289.844" y1="223.477" x2="872.888" y2="607.657" gradientUnits="userSpaceOnUse">
<stop stop-color="#FF1CF7"/>
<stop offset="1" stop-color="#00F0FF"/>
</linearGradient>
<linearGradient id="paint47_linear_3_6" x1="282.246" y1="214.487" x2="836.033" y2="622.501" gradientUnits="userSpaceOnUse">
<stop stop-color="#FF1CF7"/>
<stop offset="1" stop-color="#00F0FF"/>
</linearGradient>
<linearGradient id="paint48_linear_3_6" x1="275.071" y1="206.458" x2="798.726" y2="636.313" gradientUnits="userSpaceOnUse">
<stop stop-color="#FF1CF7"/>
<stop offset="1" stop-color="#00F0FF"/>
</linearGradient>
<linearGradient id="paint49_linear_3_6" x1="268.255" y1="199.401" x2="761.031" y2="649.079" gradientUnits="userSpaceOnUse">
<stop stop-color="#FF1CF7"/>
<stop offset="1" stop-color="#00F0FF"/>
</linearGradient>
<linearGradient id="paint50_linear_3_6" x1="261.737" y1="193.325" x2="723.016" y2="660.792" gradientUnits="userSpaceOnUse">
<stop stop-color="#FF1CF7"/>
<stop offset="1" stop-color="#00F0FF"/>
</linearGradient>
<linearGradient id="paint51_linear_3_6" x1="255.456" y1="188.234" x2="684.747" y2="671.445" gradientUnits="userSpaceOnUse">
<stop stop-color="#FF1CF7"/>
<stop offset="1" stop-color="#00F0FF"/>
</linearGradient>
<linearGradient id="paint52_linear_3_6" x1="249.35" y1="184.128" x2="646.288" y2="681.039" gradientUnits="userSpaceOnUse">
<stop stop-color="#FF1CF7"/>
<stop offset="1" stop-color="#00F0FF"/>
</linearGradient>
<linearGradient id="paint53_linear_3_6" x1="243.36" y1="181.006" x2="607.706" y2="689.575" gradientUnits="userSpaceOnUse">
<stop stop-color="#FF1CF7"/>
<stop offset="1" stop-color="#00F0FF"/>
</linearGradient>
<linearGradient id="paint54_linear_3_6" x1="237.427" y1="178.86" x2="569.064" y2="697.062" gradientUnits="userSpaceOnUse">
<stop stop-color="#FF1CF7"/>
<stop offset="1" stop-color="#00F0FF"/>
</linearGradient>
<linearGradient id="paint55_linear_3_6" x1="231.489" y1="177.681" x2="530.424" y2="703.51" gradientUnits="userSpaceOnUse">
<stop stop-color="#FF1CF7"/>
<stop offset="1" stop-color="#00F0FF"/>
</linearGradient>
<linearGradient id="paint56_linear_3_6" x1="225.493" y1="177.455" x2="491.85" y2="708.933" gradientUnits="userSpaceOnUse">
<stop stop-color="#FF1CF7"/>
<stop offset="1" stop-color="#00F0FF"/>
</linearGradient>
<linearGradient id="paint57_linear_3_6" x1="219.379" y1="178.165" x2="453.399" y2="713.35" gradientUnits="userSpaceOnUse">
<stop stop-color="#FF1CF7"/>
<stop offset="1" stop-color="#00F0FF"/>
</linearGradient>
<linearGradient id="paint58_linear_3_6" x1="213.096" y1="179.793" x2="415.132" y2="716.781" gradientUnits="userSpaceOnUse">
<stop stop-color="#FF1CF7"/>
<stop offset="1" stop-color="#00F0FF"/>
</linearGradient>
<linearGradient id="paint59_linear_3_6" x1="206.589" y1="182.314" x2="377.104" y2="719.251" gradientUnits="userSpaceOnUse">
<stop stop-color="#FF1CF7"/>
<stop offset="1" stop-color="#00F0FF"/>
</linearGradient>
<linearGradient id="paint60_linear_3_6" x1="199.809" y1="185.702" x2="339.371" y2="720.789" gradientUnits="userSpaceOnUse">
<stop stop-color="#FF1CF7"/>
<stop offset="1" stop-color="#00F0FF"/>
</linearGradient>
<linearGradient id="paint61_linear_3_6" x1="192.707" y1="189.929" x2="301.984" y2="721.424" gradientUnits="userSpaceOnUse">
<stop stop-color="#FF1CF7"/>
<stop offset="1" stop-color="#00F0FF"/>
</linearGradient>
<linearGradient id="paint62_linear_3_6" x1="185.237" y1="194.964" x2="264.994" y2="721.192" gradientUnits="userSpaceOnUse">
<stop stop-color="#FF1CF7"/>
<stop offset="1" stop-color="#00F0FF"/>
</linearGradient>
<linearGradient id="paint63_linear_3_6" x1="177.355" y1="200.773" x2="228.445" y2="720.128" gradientUnits="userSpaceOnUse">
<stop stop-color="#FF1CF7"/>
<stop offset="1" stop-color="#00F0FF"/>
</linearGradient>
<linearGradient id="paint64_linear_3_6" x1="169.019" y1="207.319" x2="192.385" y2="718.272" gradientUnits="userSpaceOnUse">
<stop stop-color="#FF1CF7"/>
<stop offset="1" stop-color="#00F0FF"/>
</linearGradient>
<linearGradient id="paint65_linear_3_6" x1="160.191" y1="214.563" x2="156.853" y2="715.664" gradientUnits="userSpaceOnUse">
<stop stop-color="#FF1CF7"/>
<stop offset="1" stop-color="#00F0FF"/>
</linearGradient>
<linearGradient id="paint66_linear_3_6" x1="150.835" y1="222.466" x2="121.888" y2="712.349" gradientUnits="userSpaceOnUse">
<stop stop-color="#FF1CF7"/>
<stop offset="1" stop-color="#00F0FF"/>
</linearGradient>
<linearGradient id="paint67_linear_3_6" x1="140.92" y1="230.985" x2="87.5271" y2="708.371" gradientUnits="userSpaceOnUse">
<stop stop-color="#FF1CF7"/>
<stop offset="1" stop-color="#00F0FF"/>
</linearGradient>
<linearGradient id="paint68_linear_3_6" x1="130.413" y1="240.077" x2="53.8002" y2="703.778" gradientUnits="userSpaceOnUse">
<stop stop-color="#FF1CF7"/>
<stop offset="1" stop-color="#00F0FF"/>
</linearGradient>
</defs>
</svg>
